<svg width="28" height="24" viewBox="0 0 28 24" fill="none" xmlns="http://www.w3.org/2000/svg">
<mask id="path-1-inside-1_380_871" fill="white">
<path d="M24.4001 12.4C24.4001 10.05 23.6042 7.76921 22.1421 5.92941C20.6799 4.08961 18.6378 2.79925 16.3485 2.26861C14.0591 1.73796 11.6575 1.99833 9.53511 3.00727C7.41267 4.01621 5.69452 5.71424 4.66064 7.82464L6.62282 9.58051C7.38044 8.03401 9.17284 6.25636 10.7282 5.51701C12.2835 4.77766 14.0434 4.58686 15.721 4.97572C17.3986 5.36457 18.8951 6.31015 19.9666 7.65835C21.038 9.00656 21.6213 10.6779 21.6213 12.4H24.4001Z"/>
</mask>
<path d="M24.4001 12.4C24.4001 10.05 23.6042 7.76921 22.1421 5.92941C20.6799 4.08961 18.6378 2.79925 16.3485 2.26861C14.0591 1.73796 11.6575 1.99833 9.53511 3.00727C7.41267 4.01621 5.69452 5.71424 4.66064 7.82464L6.62282 9.58051C7.38044 8.03401 9.17284 6.25636 10.7282 5.51701C12.2835 4.77766 14.0434 4.58686 15.721 4.97572C17.3986 5.36457 18.8951 6.31015 19.9666 7.65835C21.038 9.00656 21.6213 10.6779 21.6213 12.4H24.4001Z" fill="#242748"/>
<path d="M24.4001 12.4V16.4H28.4001L28.4001 12.4L24.4001 12.4ZM4.66064 7.82464L1.06853 6.06488L-0.264194 8.78532L1.99326 10.8054L4.66064 7.82464ZM6.62282 9.58051L3.95544 12.5613L7.89132 16.0834L10.2149 11.3403L6.62282 9.58051ZM21.6213 12.4H17.6213V16.4H21.6213V12.4ZM28.4001 12.4C28.4001 9.14611 27.2981 5.98813 25.2736 3.44072L19.0106 8.4181C19.9103 9.55028 20.4001 10.9538 20.4001 12.4L28.4001 12.4ZM25.2736 3.44072C23.2491 0.893305 20.4215 -0.893352 17.2517 -1.62809L15.4453 6.1653C16.8541 6.49185 18.1108 7.28592 19.0106 8.4181L25.2736 3.44072ZM17.2517 -1.62809C14.0818 -2.36282 10.7565 -2.00232 7.81779 -0.605323L11.2524 6.61986C12.5585 5.99898 14.0364 5.83875 15.4453 6.1653L17.2517 -1.62809ZM7.81779 -0.605323C4.87904 0.791671 2.50005 3.14279 1.06853 6.06488L8.25275 9.5844C8.88898 8.28569 9.94631 7.24075 11.2524 6.61986L7.81779 -0.605323ZM1.99326 10.8054L3.95544 12.5613L9.2902 6.59973L7.32803 4.84386L1.99326 10.8054ZM10.2149 11.3403C10.3438 11.0772 10.6727 10.6015 11.1911 10.0881C11.71 9.57418 12.186 9.25294 12.4455 9.1296L9.01085 1.90442C7.71499 2.52043 6.51712 3.45769 5.56159 4.40405C4.60553 5.35094 3.65944 6.53736 3.03071 7.82076L10.2149 11.3403ZM12.4455 9.1296C13.1845 8.7783 14.0207 8.68765 14.8178 8.87241L16.6242 1.07902C14.066 0.486076 11.3825 0.777012 9.01085 1.90442L12.4455 9.1296ZM14.8178 8.87241C15.6149 9.05717 16.3259 9.50646 16.835 10.147L23.0981 5.16966C21.4643 3.11384 19.1823 1.67197 16.6242 1.07902L14.8178 8.87241ZM16.835 10.147C17.3441 10.7876 17.6213 11.5818 17.6213 12.4H25.6213C25.6213 9.77404 24.7319 7.22548 23.0981 5.16966L16.835 10.147ZM21.6213 16.4H24.4001V8.40001H21.6213V16.4Z" fill="#242748" mask="url(#path-1-inside-1_380_871)"/>
<mask id="path-3-inside-2_380_871" fill="white">
<path d="M3.6001 12.3999C3.6001 14.6736 4.3452 16.8846 5.72134 18.6945C7.09748 20.5044 9.02883 21.8135 11.2197 22.4214C13.4107 23.0292 15.7404 22.9023 17.8523 22.0601C19.9643 21.218 21.7421 19.7069 22.9135 17.7582L21.1543 15.8467C20.2842 17.2942 18.4303 18.95 16.8615 19.5755C15.2928 20.2011 13.5623 20.2954 11.9349 19.8438C10.3074 19.3923 8.87284 18.42 7.85064 17.0755C6.82844 15.7311 6.27498 14.0888 6.27498 12.3999H3.6001Z"/>
</mask>
<path d="M3.6001 12.3999C3.6001 14.6736 4.3452 16.8846 5.72134 18.6945C7.09748 20.5044 9.02883 21.8135 11.2197 22.4214C13.4107 23.0292 15.7404 22.9023 17.8523 22.0601C19.9643 21.218 21.7421 19.7069 22.9135 17.7582L21.1543 15.8467C20.2842 17.2942 18.4303 18.95 16.8615 19.5755C15.2928 20.2011 13.5623 20.2954 11.9349 19.8438C10.3074 19.3923 8.87284 18.42 7.85064 17.0755C6.82844 15.7311 6.27498 14.0888 6.27498 12.3999H3.6001Z" fill="#242748"/>
<path d="M3.6001 12.3999V8.3999H-0.399902L-0.399902 12.3999L3.6001 12.3999ZM22.9135 17.7582L26.3417 19.8191L27.8845 17.2527L25.8567 15.0495L22.9135 17.7582ZM21.1543 15.8467L24.0975 13.138L20.4791 9.20626L17.7261 13.7858L21.1543 15.8467ZM6.27498 12.3999L10.275 12.3999L10.275 8.3999H6.27498V12.3999ZM-0.399902 12.3999C-0.399903 15.5481 0.631775 18.6095 2.5372 21.1155L8.90548 16.2735C8.05862 15.1597 7.6001 13.7991 7.6001 12.3999L-0.399902 12.3999ZM2.5372 21.1155C4.44263 23.6216 7.11681 25.4341 10.1504 26.2758L12.2891 18.567C10.9409 18.1929 9.75233 17.3873 8.90548 16.2735L2.5372 21.1155ZM10.1504 26.2758C13.184 27.1174 16.4098 26.9417 19.334 25.7756L16.3707 18.3447C15.0711 18.8629 13.6374 18.941 12.2891 18.567L10.1504 26.2758ZM19.334 25.7756C22.2582 24.6095 24.7197 22.5172 26.3417 19.8191L19.4853 15.6973C18.7644 16.8965 17.6704 17.8264 16.3707 18.3447L19.334 25.7756ZM25.8567 15.0495L24.0975 13.138L18.2111 18.5555L19.9702 20.4669L25.8567 15.0495ZM17.7261 13.7858C17.5558 14.069 17.1759 14.5359 16.6341 15.0106C16.0843 15.4922 15.613 15.7671 15.3799 15.8601L18.3432 23.291C19.6789 22.7584 20.9188 21.8926 21.9057 21.0281C22.9005 20.1566 23.8826 19.0719 24.5825 17.9076L17.7261 13.7858ZM15.3799 15.8601C14.6234 16.1617 13.789 16.2072 13.0042 15.9894L10.8655 23.6983C13.3356 24.3835 15.9621 24.2405 18.3432 23.291L15.3799 15.8601ZM13.0042 15.9894C12.2195 15.7717 11.5277 15.3028 11.0348 14.6545L4.6665 19.4965C6.21798 21.5371 8.39542 23.013 10.8655 23.6983L13.0042 15.9894ZM11.0348 14.6545C10.5419 14.0063 10.275 13.2143 10.275 12.3999L2.27498 12.3999C2.27498 14.9633 3.11502 17.456 4.6665 19.4965L11.0348 14.6545ZM6.27498 8.3999H3.6001V16.3999H6.27498V8.3999Z" fill="#242748" mask="url(#path-3-inside-2_380_871)"/>
<path d="M19.6309 12.1688L22.7988 15.8666L26.0001 12.1333H23.9804H21.748H19.6001L19.6309 12.1688Z" fill="#242748" stroke="#242748"/>
<path d="M8.36906 13.6979L5.2012 10.0001L1.9999 13.7334L4.0196 13.7334L6.25201 13.7334L8.3999 13.7334L8.36906 13.6979Z" fill="#242748" stroke="#242748"/>
</svg>
