<svg width="199" height="174" viewBox="0 0 199 174" fill="none" xmlns="http://www.w3.org/2000/svg">
<path fill-rule="evenodd" clip-rule="evenodd" d="M178.991 103.633L159.191 77.8007L158.998 77.553H172.423C172.23 76.091 171.994 74.6426 171.716 73.2076C165.204 39.4172 135.318 13.7913 99.4992 13.7913C67.977 13.7913 41.0269 33.6393 30.5798 61.4318L20.9506 48.8647C35.181 19.9585 65.0392 0 99.4992 0C142.979 0 179.144 31.7652 185.794 73.2076C186.017 74.6426 186.223 76.091 186.376 77.553H199L178.991 103.633ZM40.002 96.4458H26.5751C26.7694 97.909 27.0058 99.3595 27.282 100.791C33.7945 134.582 63.682 160.206 99.4992 160.206C131.021 160.206 157.972 140.362 168.419 112.572L178.049 125.134C163.818 154.044 133.958 174 99.4992 174C56.0197 174 19.8559 142.237 13.2055 100.791C12.9831 99.3595 12.7745 97.909 12.6225 96.4458H0L20.0072 70.3688L39.807 96.1993L40.002 96.4458Z" fill="#4169E1"/>
<path d="M115.408 118.492C115.407 119.173 115.137 119.825 114.657 120.306C114.177 120.787 113.526 121.057 112.848 121.058H85.5318C84.853 121.058 84.2019 120.788 83.7216 120.307C83.2412 119.827 82.9708 119.175 82.9697 118.494V78.4331C82.9695 78.0959 83.0355 77.7619 83.1642 77.4504C83.2929 77.1388 83.4816 76.8557 83.7195 76.6172C83.9575 76.3788 84.2401 76.1897 84.551 76.0608C84.862 75.9319 85.1953 75.8656 85.5318 75.8659H103.062L115.408 88.4811V118.492Z" fill="#23A566"/>
<path d="M104.422 88.1524L115.409 98.6746V88.4078H105.677C105.252 88.4127 104.833 88.307 104.461 88.1013L104.422 88.1524Z" fill="#1C8F5A"/>
<path d="M115.407 88.4612H105.648C104.969 88.4606 104.319 88.1902 103.839 87.7092C103.359 87.2283 103.089 86.5762 103.088 85.896V75.7969L115.407 88.4612Z" fill="#8ED1B1"/>
<path fill-rule="evenodd" clip-rule="evenodd" d="M107.599 112.727H90.7188V98.0622H107.599V112.727ZM100.208 100.178V102.745H105.524V100.182L100.208 100.178ZM100.208 104.362V106.814H105.524V104.349L100.208 104.362ZM100.208 108.378V110.649H105.524V108.366L100.208 108.378ZM98.1214 110.637V108.366H92.8076V110.637H98.1214ZM98.1214 106.788V104.349H92.8076V106.8L98.1214 106.788ZM98.1214 102.771V100.178H92.8076V102.745L98.1214 102.771Z" fill="white"/>
<path d="M76.0161 131.683C76.0161 130.508 75.1325 129.705 74.1066 129.705C73.0808 129.705 72.1964 130.508 72.1964 131.683C72.1964 132.846 73.0808 133.661 74.1066 133.661C75.1325 133.661 76.0161 132.844 76.0161 131.683ZM77.5031 131.683C77.5031 133.563 75.9781 134.948 74.1059 134.948C72.2344 134.948 70.7094 133.563 70.7094 131.683C70.7094 129.79 72.2344 128.418 74.1066 128.418C75.9781 128.418 77.5031 129.79 77.5031 131.683ZM83.3432 131.683C83.3432 130.508 82.4596 129.705 81.4338 129.705C80.4079 129.705 79.5243 130.508 79.5243 131.683C79.5243 132.846 80.4079 133.661 81.4338 133.661C82.4596 133.661 83.3432 132.844 83.3432 131.683ZM84.8302 131.683C84.8302 133.563 83.3052 134.948 81.4338 134.948C79.5623 134.948 78.0365 133.563 78.0365 131.683C78.0365 129.791 79.5623 128.418 81.4338 128.418C83.3052 128.418 84.8302 129.79 84.8302 131.683ZM90.5467 131.694C90.5467 130.544 89.751 129.704 88.7393 129.704C87.7127 129.704 86.8537 130.544 86.8537 131.694C86.8537 132.832 87.7127 133.661 88.7385 133.661C89.751 133.661 90.5467 132.832 90.5467 131.694ZM91.8534 128.615V134.477C91.8534 136.888 90.3783 137.874 88.635 137.874C88.0014 137.884 87.3788 137.707 86.845 137.365C86.3113 137.022 85.8901 136.53 85.6341 135.949L86.9282 135.43C87.1591 135.961 87.7238 136.588 88.6342 136.588C89.7495 136.588 90.4409 135.924 90.4409 134.674V134.204H90.3887C90.0565 134.6 89.415 134.947 88.6059 134.947C86.9133 134.947 85.3622 133.524 85.3622 131.695C85.3622 129.851 86.9133 128.418 88.6059 128.418C89.4135 128.418 90.055 128.763 90.3895 129.148H90.4416V128.616H91.8534V128.615ZM94.1815 125.177H92.731V134.747H94.1808L94.1815 125.177ZM96.2802 131.581L99.3064 130.37C99.1403 129.961 98.6389 129.678 98.0504 129.678C97.2942 129.678 96.2422 130.321 96.2802 131.581ZM99.8332 132.756L100.987 133.498C100.67 133.95 100.247 134.319 99.7552 134.571C99.2636 134.823 98.7181 134.952 98.1658 134.945C96.2422 134.945 94.8059 133.512 94.8059 131.68C94.8059 129.738 96.2549 128.415 97.9997 128.415C99.7564 128.415 100.616 129.763 100.898 130.491L101.051 130.862L96.5246 132.671C96.871 133.326 97.4104 133.66 98.1658 133.66C98.9235 133.66 99.448 133.301 99.8332 132.756ZM65.2195 130.832V129.446H70.0605C70.1074 129.688 70.132 129.973 70.132 130.282C70.132 131.322 69.8378 132.607 68.8879 133.522C67.9641 134.45 66.784 134.945 65.221 134.945C62.3229 134.945 59.8867 132.668 59.8867 129.875C59.8867 127.081 62.3229 124.805 65.221 124.805C66.8242 124.805 67.9656 125.411 68.8238 126.201L67.8106 127.179C67.1952 126.622 66.3616 126.19 65.2195 126.19C63.1037 126.19 61.449 127.834 61.449 129.875C61.449 131.916 63.1037 133.56 65.2195 133.56C66.5918 133.56 67.3733 133.028 67.8739 132.545C68.2807 132.153 68.5474 131.594 68.6532 130.83L65.2195 130.832ZM109.754 132.737C109.754 133.493 109.477 134.101 108.924 134.559C108.361 135.01 107.68 135.235 106.876 135.235C106.161 135.235 105.532 135.026 104.986 134.608C104.44 134.19 104.062 133.618 103.853 132.894L104.913 132.46C104.986 132.717 105.085 132.95 105.214 133.159C105.342 133.368 105.491 133.55 105.66 133.703C105.836 133.848 106.029 133.964 106.238 134.052C106.447 134.133 106.667 134.173 106.9 134.173C107.406 134.173 107.82 134.045 108.141 133.787C108.462 133.522 108.623 133.171 108.623 132.737C108.623 132.375 108.49 132.065 108.225 131.808C107.976 131.559 107.51 131.317 106.828 131.084C106.137 130.835 105.708 130.666 105.539 130.577C104.624 130.111 104.166 129.423 104.166 128.513C104.166 127.878 104.419 127.335 104.925 126.884C105.439 126.434 106.07 126.209 106.816 126.209C107.475 126.209 108.045 126.378 108.526 126.716C109.008 127.046 109.329 127.46 109.49 127.959L108.454 128.393C108.357 128.07 108.153 127.789 107.875 127.597C107.595 127.379 107.25 127.27 106.84 127.27C106.406 127.27 106.041 127.391 105.745 127.632C105.447 127.858 105.298 128.151 105.298 128.513C105.298 128.812 105.415 129.069 105.648 129.286C105.905 129.502 106.463 129.761 107.322 130.059C108.197 130.356 108.819 130.722 109.188 131.156C109.566 131.583 109.754 132.11 109.754 132.737ZM110.896 126.401H112.004V129.129L111.955 129.95H112.004C112.172 129.66 112.429 129.419 112.775 129.226C113.109 129.038 113.487 128.938 113.871 128.936C114.592 128.936 115.147 129.145 115.532 129.563C115.925 129.973 116.122 130.561 116.122 131.325V135.042H115.014V131.543C115.014 130.48 114.545 129.95 113.605 129.95C113.155 129.95 112.775 130.138 112.461 130.517C112.158 130.882 111.995 131.345 112.004 131.82V135.042H110.896V126.401ZM120.073 135.235C119.206 135.235 118.491 134.937 117.929 134.342C117.367 133.747 117.086 132.994 117.086 132.085C117.086 131.184 117.359 130.436 117.905 129.841C118.451 129.237 119.149 128.936 120 128.936C120.875 128.936 121.57 129.222 122.083 129.793C122.606 130.356 122.866 131.148 122.866 132.17L122.855 132.291H118.218C118.234 132.87 118.426 133.336 118.796 133.69C119.165 134.044 119.607 134.222 120.12 134.222C120.827 134.222 121.381 133.868 121.783 133.159L122.77 133.642C122.517 134.128 122.133 134.534 121.663 134.813C121.196 135.094 120.666 135.235 120.073 135.235ZM118.302 131.374H121.686C121.675 131.179 121.624 130.989 121.537 130.815C121.45 130.641 121.329 130.486 121.181 130.36C120.883 130.086 120.482 129.95 119.976 129.95C119.559 129.95 119.197 130.078 118.892 130.335C118.595 130.593 118.399 130.94 118.302 131.374ZM126.589 135.235C125.721 135.235 125.006 134.937 124.444 134.342C123.883 133.747 123.601 132.994 123.601 132.085C123.601 131.184 123.874 130.436 124.421 129.841C124.967 129.237 125.665 128.936 126.516 128.936C127.391 128.936 128.085 129.222 128.599 129.793C129.122 130.356 129.382 131.148 129.382 132.17L129.37 132.291H124.733C124.75 132.87 124.942 133.336 125.312 133.69C125.681 134.044 126.122 134.222 126.636 134.222C127.343 134.222 127.897 133.868 128.298 133.159L129.286 133.642C129.033 134.129 128.649 134.534 128.178 134.813C127.712 135.094 127.182 135.235 126.589 135.235ZM124.818 131.374H128.202C128.191 131.179 128.14 130.989 128.053 130.815C127.966 130.641 127.845 130.486 127.696 130.36C127.399 130.086 126.998 129.95 126.492 129.95C126.074 129.95 125.713 130.078 125.408 130.335C125.111 130.593 124.914 130.94 124.818 131.374ZM132.555 135.138C132.074 135.138 131.672 134.989 131.351 134.692C131.038 134.394 130.878 133.98 130.869 133.449V130.142H129.834V129.129H130.869V127.319H131.977V129.129H133.422V130.143H131.977V133.087C131.977 133.481 132.054 133.751 132.207 133.896C132.359 134.032 132.531 134.101 132.724 134.101C132.812 134.101 132.896 134.093 132.977 134.077C133.066 134.052 133.145 134.025 133.218 133.993L133.567 134.982C133.278 135.086 132.941 135.138 132.555 135.138ZM139.111 133.401C139.111 133.916 138.886 134.35 138.436 134.704C137.986 135.058 137.42 135.235 136.738 135.235C136.144 135.235 135.622 135.082 135.172 134.776C134.732 134.475 134.396 134.045 134.209 133.545L135.196 133.124C135.341 133.477 135.549 133.755 135.823 133.956C136.104 134.149 136.408 134.246 136.738 134.246C137.092 134.246 137.384 134.169 137.617 134.016C137.858 133.863 137.978 133.683 137.978 133.473C137.978 133.095 137.689 132.818 137.111 132.641L136.1 132.387C134.951 132.098 134.378 131.543 134.378 130.722C134.378 130.183 134.594 129.752 135.028 129.431C135.47 129.101 136.031 128.936 136.714 128.936C137.235 128.936 137.706 129.06 138.123 129.31C138.549 129.559 138.845 129.894 139.014 130.312L138.027 130.722C137.913 130.472 137.717 130.267 137.472 130.143C137.216 129.996 136.925 129.921 136.63 129.926C136.341 129.926 136.08 129.998 135.847 130.142C135.622 130.288 135.509 130.465 135.509 130.674C135.509 131.012 135.827 131.253 136.461 131.398L137.352 131.627C138.524 131.917 139.111 132.508 139.111 133.401Z" fill="#787879"/>
<mask id="mask0_1627_3296" style="mask-type:luminance" maskUnits="userSpaceOnUse" x="54" y="45" width="98" height="17">
<path d="M151.049 45.8218H54.0708V61.4412H151.049V45.8218Z" fill="white"/>
</mask>
<g mask="url(#mask0_1627_3296)">
<path d="M115.449 52.8961C115.449 52.8961 114.611 53.0967 113.903 53.266L112.826 53.5122C112.823 53.5122 112.819 53.5122 112.816 53.5122C112.816 53.2205 112.837 52.9132 112.907 52.63C112.996 52.2672 113.191 51.8432 113.532 51.6568C113.901 51.4547 114.352 51.4306 114.743 51.5871C115.149 51.7479 115.334 52.1406 115.414 52.5475C115.436 52.6613 115.45 52.7752 115.462 52.8904L115.449 52.8961ZM118.258 53.5122C118.258 50.6907 116.488 49.4784 114.226 49.4784C111.669 49.4784 110.068 51.2555 110.068 53.5264C110.068 55.9951 111.431 57.6029 114.366 57.6029C115.954 57.6029 116.852 57.3211 117.921 56.7848L117.514 54.9365C116.699 55.3036 115.941 55.5284 114.929 55.5284C113.819 55.5284 113.187 55.1058 112.948 54.3161H118.187C118.23 54.1041 118.258 53.8636 118.258 53.5122Z" fill="#92003B"/>
<path d="M91.9363 52.8961C91.9363 52.8961 91.0987 53.0967 90.3901 53.266L89.3131 53.5122C89.3101 53.5122 89.3059 53.5122 89.3031 53.5122C89.3031 53.2205 89.3244 52.9132 89.3937 52.63C89.4831 52.2672 89.6786 51.8432 90.0187 51.6568C90.3887 51.4547 90.8393 51.4306 91.2305 51.5871C91.6358 51.7479 91.8215 52.1406 91.9008 52.5475C91.9235 52.6613 91.9376 52.7752 91.949 52.8904L91.9363 52.8961ZM94.7451 53.5122C94.7451 50.6907 92.975 49.4784 90.7132 49.4784C88.1566 49.4784 86.5552 51.2555 86.5552 53.5264C86.5552 55.9951 87.9185 57.6029 90.8535 57.6029C92.4408 57.6029 93.3393 57.3211 94.4078 56.7848L94.0012 54.9365C93.1862 55.3036 92.428 55.5284 91.4161 55.5284C90.3065 55.5284 89.6744 55.1058 89.4349 54.3161H94.6743C94.7169 54.1041 94.7451 53.8636 94.7451 53.5122Z" fill="#92003B"/>
<path d="M85.4553 47.4054H82.8604V57.3199H85.4553V47.4054Z" fill="#92003B"/>
<path d="M118.804 49.7316H121.529L122.103 51.4846C122.462 50.6195 123.27 49.5068 124.703 49.5068C126.67 49.5068 127.737 50.5085 127.737 53.0895V57.3211H125.012C125.012 56.439 125.013 55.5582 125.014 54.676C125.014 54.2719 125.007 53.8678 125.013 53.4637C125.017 53.091 125.044 52.7054 124.846 52.371C124.711 52.1448 124.491 51.9783 124.255 51.8645C123.774 51.634 123.253 51.6396 122.781 51.8872C122.665 51.9484 122.103 52.2529 122.103 52.3938V57.3211H119.378V51.7791L118.804 49.7316Z" fill="#92003B"/>
<path d="M129.8 51.7208H128.55V49.7316H129.8V48.4881L132.525 47.8435V49.7316H135.265V51.7208H132.525V53.949C132.525 54.824 132.946 55.2324 133.578 55.2324C134.224 55.2324 134.59 55.147 135.137 54.9649L135.46 57.0237C134.716 57.3482 133.789 57.5033 132.847 57.5033C130.866 57.5033 129.798 56.5585 129.798 54.7245V51.7208H129.8Z" fill="#92003B"/>
<path d="M140.361 55.3448C141.359 55.3448 141.949 54.6248 141.949 53.4695C141.949 52.3141 141.388 51.6496 140.404 51.6496C139.406 51.6496 138.831 52.3127 138.831 53.5107C138.831 54.6405 139.392 55.3448 140.361 55.3448ZM140.39 49.4356C142.946 49.4356 144.814 51.0435 144.814 53.5392C144.814 56.0491 142.946 57.5587 140.361 57.5587C137.791 57.5587 135.964 56.0078 135.964 53.5392C135.964 51.0435 137.777 49.4356 140.39 49.4356Z" fill="#92003B"/>
<path d="M107.626 49.7089C107.144 49.5097 106.598 49.4357 106.077 49.5112C105.812 49.5496 105.553 49.6264 105.312 49.7459C104.651 50.0732 104.137 50.8202 103.86 51.4861C103.679 50.7192 103.15 50.0305 102.378 49.7104C101.896 49.5112 101.35 49.4372 100.829 49.5126C100.564 49.551 100.305 49.6278 100.064 49.7474C99.4047 50.0732 98.8916 50.8173 98.6139 51.4818V51.4334L98.0584 49.7346H95.333L95.9071 51.782V57.3226H98.6139V52.3697C98.6238 52.3327 98.7443 52.2644 98.7655 52.2487C99.0829 52.0225 99.4557 51.7892 99.8525 51.7607C100.258 51.7308 100.657 51.9371 100.898 52.2601C100.924 52.2957 100.948 52.3313 100.971 52.3683C101.169 52.7026 101.142 53.0882 101.138 53.461C101.134 53.8651 101.139 54.2692 101.139 54.6733C101.138 55.5555 101.137 56.4363 101.137 57.3183H103.862V53.0882C103.862 53.0669 103.862 53.0455 103.862 53.0256V52.3725C103.867 52.337 103.992 52.2658 104.015 52.2502C104.332 52.0239 104.705 51.7906 105.102 51.7621C105.507 51.7322 105.907 51.9386 106.148 52.2615C106.173 52.2971 106.197 52.3327 106.22 52.3697C106.418 52.7041 106.392 53.0897 106.387 53.4624C106.383 53.8665 106.389 54.2706 106.389 54.6747C106.387 55.5569 106.386 56.4376 106.386 57.3198H109.111V53.0882C109.111 51.8475 108.934 50.2496 107.626 49.7089Z" fill="#92003B"/>
<path d="M151.26 49.5068C149.827 49.5068 149.021 50.6209 148.661 51.4846L148.087 49.7316H145.361L145.935 51.7791V57.3197H148.661V52.2002C149.049 52.132 151.156 52.5218 151.556 52.6684V49.5167C151.46 49.511 151.362 49.5068 151.26 49.5068Z" fill="#92003B"/>
<path d="M78.9529 52.8961C78.9529 52.8961 78.1154 53.0967 77.4068 53.266L76.3297 53.5122C76.3269 53.5122 76.3226 53.5122 76.3198 53.5122C76.3198 53.2205 76.341 52.9132 76.4105 52.63C76.4998 52.2672 76.6954 51.8432 77.0355 51.6568C77.4053 51.4547 77.8561 51.4306 78.2472 51.5871C78.6525 51.7479 78.8381 52.1406 78.9176 52.5475C78.9402 52.6613 78.9544 52.7752 78.9657 52.8904L78.9529 52.8961ZM81.7619 53.5122C81.7619 50.6907 79.9918 49.4784 77.7299 49.4784C75.1732 49.4784 73.5718 51.2555 73.5718 53.5264C73.5718 55.9951 74.9351 57.6029 77.8702 57.6029C79.4575 57.6029 80.356 57.3211 81.4246 56.7848L81.0178 54.9365C80.2029 55.3036 79.4447 55.5284 78.4328 55.5284C77.3232 55.5284 76.6911 55.1058 76.4515 54.3161H81.6909C81.7335 54.1041 81.7619 53.8636 81.7619 53.5122Z" fill="#92003B"/>
<path d="M61.8555 45.8218C57.5557 45.8218 54.0708 49.3206 54.0708 53.6376C54.0708 57.9532 57.5557 61.4534 61.8555 61.4534C66.1553 61.4534 69.6402 57.9545 69.6402 53.6376C69.6388 49.3206 66.1539 45.8218 61.8555 45.8218ZM59.9097 56.893H58.6129V50.3806H59.9097V56.893ZM65.0981 56.893H61.2064V55.5912H65.0981V56.893ZM65.0981 54.2878H61.2064V52.9859H65.0981V54.2878ZM65.0981 51.6826H61.2064V50.3806H65.0981V51.6826Z" fill="#92003B"/>
</g>
</svg>
