<svg width="199" height="174" viewBox="0 0 199 174" fill="none" xmlns="http://www.w3.org/2000/svg">
<path fill-rule="evenodd" clip-rule="evenodd" d="M178.991 103.633L159.191 77.8007L158.998 77.553H172.423C172.23 76.091 171.994 74.6426 171.716 73.2076C165.204 39.4172 135.318 13.7913 99.4992 13.7913C67.977 13.7913 41.0269 33.6393 30.5798 61.4318L20.9506 48.8647C35.181 19.9585 65.0392 0 99.4992 0C142.979 0 179.144 31.7652 185.794 73.2076C186.017 74.6426 186.223 76.091 186.376 77.553H199L178.991 103.633ZM40.002 96.4458H26.5751C26.7694 97.909 27.0058 99.3595 27.282 100.791C33.7945 134.582 63.682 160.206 99.4992 160.206C131.021 160.206 157.972 140.362 168.419 112.572L178.049 125.134C163.818 154.044 133.958 174 99.4992 174C56.0197 174 19.8559 142.237 13.2055 100.791C12.9831 99.3595 12.7745 97.909 12.6225 96.4458H0L20.0072 70.3688L39.807 96.1993L40.002 96.4458Z" fill="#4169E1"/>
<path d="M115.409 118.494C115.408 119.174 115.139 119.826 114.659 120.307C114.179 120.788 113.528 121.058 112.849 121.059H85.5328C84.854 121.059 84.2029 120.789 83.7226 120.308C83.2422 119.828 82.9718 119.176 82.9707 118.496V78.4344C82.9704 78.0972 83.0365 77.7632 83.1652 77.4516C83.2938 77.1401 83.4826 76.8569 83.7205 76.6185C83.9585 76.3801 84.241 76.191 84.552 76.0621C84.863 75.9331 85.1963 75.8669 85.5328 75.8672H103.064L115.409 88.4824V118.494Z" fill="#23A566"/>
<path d="M104.423 88.1535L115.41 98.6757V88.409H105.678C105.253 88.4138 104.834 88.3082 104.462 88.1024L104.423 88.1535Z" fill="#1C8F5A"/>
<path d="M115.408 88.4624H105.649C104.97 88.4618 104.32 88.1914 103.84 87.7105C103.36 87.2295 103.09 86.5774 103.089 85.8972V75.7981L115.408 88.4624Z" fill="#8ED1B1"/>
<path fill-rule="evenodd" clip-rule="evenodd" d="M107.599 112.729H90.7192V98.0634H107.599V112.729ZM100.209 100.179V102.746H105.525V100.183L100.209 100.179ZM100.209 104.363V106.815H105.525V104.351L100.209 104.363ZM100.209 108.379V110.65H105.525V108.367L100.209 108.379ZM98.122 110.638V108.367H92.8081V110.638H98.122ZM98.122 106.789V104.351H92.8081V106.801L98.122 106.789ZM98.122 102.773V100.179H92.8081V102.746L98.122 102.773Z" fill="white"/>
<path d="M76.0167 131.684C76.0167 130.509 75.1331 129.706 74.1073 129.706C73.0814 129.706 72.197 130.509 72.197 131.684C72.197 132.847 73.0814 133.662 74.1073 133.662C75.1331 133.662 76.0167 132.845 76.0167 131.684ZM77.5038 131.684C77.5038 133.564 75.9787 134.949 74.1065 134.949C72.235 134.949 70.71 133.564 70.71 131.684C70.71 129.791 72.235 128.419 74.1073 128.419C75.9787 128.419 77.5038 129.791 77.5038 131.684ZM83.3439 131.684C83.3439 130.509 82.4603 129.706 81.4345 129.706C80.4086 129.706 79.525 130.509 79.525 131.684C79.525 132.847 80.4086 133.662 81.4345 133.662C82.4603 133.662 83.3439 132.845 83.3439 131.684ZM84.831 131.684C84.831 133.564 83.3059 134.949 81.4345 134.949C79.563 134.949 78.0372 133.564 78.0372 131.684C78.0372 129.792 79.563 128.419 81.4345 128.419C83.3059 128.419 84.831 129.791 84.831 131.684ZM90.5474 131.695C90.5474 130.546 89.7518 129.705 88.74 129.705C87.7134 129.705 86.8544 130.546 86.8544 131.695C86.8544 132.834 87.7134 133.662 88.7393 133.662C89.7518 133.662 90.5474 132.833 90.5474 131.695ZM91.8542 128.616V134.478C91.8542 136.889 90.3791 137.875 88.6357 137.875C88.0021 137.885 87.3795 137.708 86.8458 137.366C86.312 137.023 85.8908 136.531 85.6348 135.95L86.9289 135.431C87.1599 135.962 87.7246 136.589 88.635 136.589C89.7503 136.589 90.4417 135.925 90.4417 134.675V134.205H90.3895C90.0572 134.601 89.4158 134.948 88.6067 134.948C86.914 134.948 85.3629 133.526 85.3629 131.696C85.3629 129.852 86.914 128.419 88.6067 128.419C89.4143 128.419 90.0557 128.764 90.3902 129.149H90.4424V128.617H91.8542V128.616ZM94.1824 125.178H92.7318V134.748H94.1816L94.1824 125.178ZM96.2811 131.582L99.3073 130.371C99.1412 129.962 98.6398 129.679 98.0512 129.679C97.295 129.679 96.2431 130.322 96.2811 131.582ZM99.834 132.757L100.988 133.499C100.67 133.951 100.248 134.32 99.756 134.572C99.2644 134.824 98.7189 134.953 98.1667 134.946C96.2431 134.946 94.8067 133.513 94.8067 131.681C94.8067 129.739 96.2557 128.416 98.0005 128.416C99.7573 128.416 100.617 129.764 100.899 130.493L101.052 130.864L96.5254 132.672C96.8718 133.327 97.4112 133.661 98.1667 133.661C98.9244 133.661 99.4488 133.302 99.834 132.757ZM65.22 130.833V129.447H70.0611C70.108 129.689 70.1326 129.974 70.1326 130.283C70.1326 131.323 69.8383 132.608 68.8884 133.523C67.9646 134.451 66.7845 134.946 65.2215 134.946C62.3234 134.946 59.8872 132.669 59.8872 129.876C59.8872 127.083 62.3234 124.806 65.2215 124.806C66.8248 124.806 67.9661 125.412 68.8244 126.202L67.8112 127.18C67.1958 126.623 66.3621 126.191 65.22 126.191C63.1042 126.191 61.4495 127.835 61.4495 129.876C61.4495 131.917 63.1042 133.561 65.22 133.561C66.5923 133.561 67.3738 133.029 67.8745 132.546C68.2813 132.154 68.548 131.595 68.6538 130.831L65.22 130.833ZM109.755 132.738C109.755 133.494 109.478 134.102 108.925 134.56C108.362 135.011 107.68 135.236 106.877 135.236C106.162 135.236 105.533 135.027 104.987 134.609C104.44 134.191 104.063 133.619 103.854 132.895L104.914 132.461C104.987 132.718 105.086 132.951 105.215 133.16C105.343 133.369 105.492 133.551 105.661 133.704C105.837 133.849 106.03 133.965 106.239 134.053C106.447 134.134 106.668 134.174 106.901 134.174C107.407 134.174 107.821 134.046 108.142 133.788C108.463 133.523 108.624 133.172 108.624 132.738C108.624 132.376 108.491 132.066 108.226 131.809C107.977 131.56 107.511 131.318 106.829 131.085C106.138 130.836 105.709 130.667 105.54 130.578C104.625 130.112 104.167 129.424 104.167 128.514C104.167 127.879 104.42 127.336 104.926 126.885C105.44 126.435 106.071 126.21 106.817 126.21C107.476 126.21 108.046 126.379 108.527 126.717C109.009 127.047 109.33 127.461 109.491 127.96L108.455 128.394C108.358 128.071 108.154 127.79 107.876 127.598C107.596 127.38 107.251 127.271 106.841 127.271C106.407 127.271 106.042 127.392 105.746 127.633C105.448 127.859 105.299 128.152 105.299 128.514C105.299 128.813 105.416 129.07 105.649 129.287C105.906 129.503 106.464 129.762 107.323 130.06C108.198 130.357 108.82 130.723 109.189 131.157C109.567 131.584 109.755 132.111 109.755 132.738ZM110.897 126.402H112.005V129.13L111.956 129.951H112.005C112.173 129.661 112.43 129.42 112.776 129.227C113.11 129.039 113.488 128.939 113.872 128.937C114.593 128.937 115.148 129.146 115.533 129.564C115.926 129.974 116.123 130.562 116.123 131.326V135.043H115.015V131.544C115.015 130.481 114.546 129.951 113.606 129.951C113.156 129.951 112.776 130.139 112.462 130.518C112.159 130.883 111.996 131.346 112.005 131.821V135.043H110.897V126.402ZM120.074 135.236C119.207 135.236 118.492 134.938 117.93 134.343C117.368 133.748 117.087 132.995 117.087 132.086C117.087 131.185 117.36 130.437 117.906 129.842C118.452 129.238 119.15 128.937 120.001 128.937C120.876 128.937 121.571 129.223 122.085 129.794C122.607 130.357 122.868 131.149 122.868 132.171L122.856 132.292H118.219C118.235 132.871 118.427 133.337 118.797 133.691C119.166 134.045 119.608 134.223 120.121 134.223C120.828 134.223 121.382 133.869 121.784 133.16L122.771 133.643C122.518 134.129 122.135 134.535 121.664 134.814C121.197 135.095 120.668 135.236 120.074 135.236ZM118.303 131.375H121.687C121.676 131.18 121.625 130.99 121.538 130.816C121.451 130.642 121.33 130.487 121.182 130.361C120.884 130.087 120.483 129.951 119.977 129.951C119.56 129.951 119.198 130.079 118.893 130.336C118.596 130.594 118.4 130.941 118.303 131.375ZM126.59 135.236C125.722 135.236 125.007 134.938 124.446 134.343C123.884 133.748 123.602 132.995 123.602 132.086C123.602 131.185 123.876 130.437 124.422 129.842C124.968 129.238 125.666 128.937 126.517 128.937C127.392 128.937 128.086 129.223 128.6 129.794C129.123 130.357 129.383 131.149 129.383 132.171L129.372 132.292H124.735C124.751 132.871 124.943 133.337 125.313 133.691C125.682 134.045 126.123 134.223 126.637 134.223C127.344 134.223 127.898 133.869 128.299 133.16L129.287 133.643C129.034 134.13 128.65 134.535 128.179 134.814C127.713 135.095 127.183 135.236 126.59 135.236ZM124.819 131.375H128.203C128.192 131.18 128.141 130.99 128.054 130.816C127.967 130.642 127.846 130.487 127.697 130.361C127.4 130.087 126.999 129.951 126.493 129.951C126.076 129.951 125.714 130.079 125.409 130.336C125.112 130.594 124.915 130.941 124.819 131.375ZM132.556 135.139C132.075 135.139 131.674 134.99 131.353 134.693C131.039 134.395 130.879 133.981 130.87 133.45V130.143H129.835V129.13H130.87V127.32H131.978V129.13H133.424V130.144H131.978V133.088C131.978 133.482 132.055 133.752 132.208 133.897C132.36 134.033 132.533 134.102 132.726 134.102C132.813 134.102 132.898 134.094 132.978 134.078C133.067 134.053 133.146 134.026 133.219 133.994L133.568 134.983C133.279 135.087 132.942 135.139 132.556 135.139ZM139.112 133.402C139.112 133.917 138.887 134.351 138.438 134.705C137.988 135.059 137.421 135.236 136.739 135.236C136.145 135.236 135.623 135.083 135.174 134.777C134.734 134.476 134.397 134.046 134.21 133.546L135.198 133.125C135.342 133.478 135.551 133.756 135.824 133.957C136.105 134.15 136.41 134.247 136.739 134.247C137.093 134.247 137.386 134.17 137.618 134.017C137.859 133.864 137.979 133.684 137.979 133.474C137.979 133.096 137.69 132.819 137.112 132.642L136.101 132.388C134.952 132.099 134.379 131.544 134.379 130.723C134.379 130.184 134.596 129.753 135.029 129.432C135.471 129.102 136.033 128.937 136.715 128.937C137.237 128.937 137.707 129.061 138.124 129.311C138.55 129.56 138.847 129.895 139.016 130.313L138.028 130.723C137.914 130.473 137.719 130.268 137.474 130.144C137.217 129.997 136.926 129.922 136.631 129.927C136.342 129.927 136.081 129.999 135.848 130.143C135.623 130.289 135.51 130.466 135.51 130.675C135.51 131.013 135.828 131.254 136.463 131.399L137.354 131.628C138.525 131.918 139.112 132.509 139.112 133.402Z" fill="#787879"/>
<path d="M79.2782 48.9511C79.366 49.0096 79.4172 49.0864 79.4318 49.1815C79.4464 49.2692 79.4245 49.357 79.366 49.4448C79.3148 49.5106 79.249 49.5472 79.1685 49.5545C79.0881 49.5618 79.0113 49.5472 78.9381 49.5106C78.6602 49.3278 78.3604 49.1851 78.0386 49.0828C77.7241 48.9804 77.384 48.9292 77.0183 48.9292C76.5722 48.9292 76.1553 49.0096 75.7677 49.1705C75.3874 49.3241 75.0546 49.5508 74.7694 49.8507C74.4841 50.1432 74.2611 50.4906 74.1002 50.8929C73.9466 51.2951 73.8698 51.7376 73.8698 52.2203C73.8698 52.7176 73.9502 53.1711 74.1111 53.5806C74.272 53.9829 74.4951 54.3303 74.7803 54.6228C75.0729 54.9154 75.4093 55.1384 75.7896 55.292C76.1699 55.4456 76.5795 55.5224 77.0183 55.5224C77.3767 55.5224 77.7131 55.4712 78.0276 55.3688C78.3494 55.2664 78.6492 55.1275 78.9272 54.9519C79.0003 54.908 79.0771 54.8934 79.1575 54.908C79.2453 54.9154 79.3148 54.9556 79.366 55.0287C79.4318 55.1092 79.4537 55.1969 79.4318 55.292C79.4172 55.3798 79.3696 55.4493 79.2892 55.5004C79.1063 55.6175 78.8906 55.7272 78.6419 55.8296C78.3933 55.9319 78.13 56.0124 77.8521 56.0709C77.5741 56.1367 77.2962 56.1696 77.0183 56.1696C76.4917 56.1696 75.9981 56.0746 75.5373 55.8844C75.0765 55.6943 74.667 55.4273 74.3086 55.0836C73.9502 54.7325 73.6687 54.3156 73.4639 53.8329C73.2664 53.3502 73.1677 52.8127 73.1677 52.2203C73.1677 51.6498 73.2664 51.1269 73.4639 50.6515C73.6614 50.1688 73.9356 49.7519 74.2867 49.4009C74.6377 49.0498 75.0473 48.7756 75.5154 48.5781C75.9834 48.3806 76.4844 48.2819 77.0183 48.2819C77.4352 48.2819 77.8374 48.3404 78.2251 48.4574C78.6127 48.5745 78.9637 48.739 79.2782 48.9511ZM85.8969 53.2515C85.8969 53.8073 85.7762 54.3083 85.5349 54.7545C85.2935 55.1933 84.9644 55.5407 84.5475 55.7966C84.1307 56.0453 83.6553 56.1696 83.1214 56.1696C82.6021 56.1696 82.1304 56.0453 81.7062 55.7966C81.2893 55.5407 80.9565 55.1933 80.7079 54.7545C80.4665 54.3083 80.3459 53.8073 80.3459 53.2515C80.3459 52.6884 80.4665 52.1874 80.7079 51.7486C80.9565 51.3097 81.2893 50.9624 81.7062 50.7064C82.1304 50.4504 82.6021 50.3224 83.1214 50.3224C83.6553 50.3224 84.1307 50.4504 84.5475 50.7064C84.9644 50.9624 85.2935 51.3097 85.5349 51.7486C85.7762 52.1874 85.8969 52.6884 85.8969 53.2515ZM85.2387 53.2515C85.2387 52.8054 85.1472 52.4104 84.9644 52.0667C84.7816 51.7157 84.5292 51.4414 84.2074 51.2439C83.893 51.0391 83.5309 50.9368 83.1214 50.9368C82.7264 50.9368 82.3681 51.0391 82.0463 51.2439C81.7245 51.4414 81.4685 51.7157 81.2783 52.0667C81.0955 52.4104 81.0041 52.8054 81.0041 53.2515C81.0041 53.6976 81.0955 54.0926 81.2783 54.4363C81.4685 54.7801 81.7245 55.0543 82.0463 55.2591C82.3681 55.4566 82.7264 55.5553 83.1214 55.5553C83.5309 55.5553 83.893 55.4566 84.2074 55.2591C84.5292 55.0543 84.7816 54.7801 84.9644 54.4363C85.1472 54.0926 85.2387 53.6976 85.2387 53.2515ZM89.9397 50.3224C90.4224 50.3224 90.8063 50.4211 91.0916 50.6186C91.3841 50.8088 91.5925 51.0721 91.7169 51.4085C91.8485 51.7376 91.9143 52.1033 91.9143 52.5055V55.7308C91.9143 55.8186 91.8814 55.8954 91.8156 55.9612C91.7498 56.027 91.673 56.0599 91.5852 56.0599C91.4828 56.0599 91.4024 56.027 91.3439 55.9612C91.2854 55.8954 91.2561 55.8186 91.2561 55.7308V52.5384C91.2561 52.2459 91.2086 51.9789 91.1135 51.7376C91.0184 51.4962 90.8612 51.3024 90.6418 51.1562C90.4297 51.0099 90.1481 50.9368 89.797 50.9368C89.4826 50.9368 89.1827 51.0099 88.8975 51.1562C88.6195 51.3024 88.3928 51.4962 88.2173 51.7376C88.0418 51.9789 87.954 52.2459 87.954 52.5384V55.7308C87.954 55.8186 87.9211 55.8954 87.8553 55.9612C87.7895 56.027 87.7127 56.0599 87.6249 56.0599C87.5225 56.0599 87.4421 56.027 87.3835 55.9612C87.325 55.8954 87.2958 55.8186 87.2958 55.7308V50.8161C87.2958 50.7283 87.325 50.6515 87.3835 50.5857C87.4494 50.5199 87.5298 50.487 87.6249 50.487C87.72 50.487 87.7968 50.5199 87.8553 50.5857C87.9211 50.6515 87.954 50.7283 87.954 50.8161V51.7376L87.7017 52.1325C87.7163 51.8985 87.7895 51.6754 87.9211 51.4633C88.0601 51.2439 88.2356 51.0501 88.4477 50.8819C88.6598 50.7064 88.8938 50.5711 89.1498 50.476C89.4131 50.3736 89.6764 50.3224 89.9397 50.3224ZM93.276 50.476H95.8321C95.9199 50.476 95.993 50.5089 96.0515 50.5747C96.1101 50.6332 96.1393 50.7064 96.1393 50.7941C96.1393 50.8746 96.1101 50.9441 96.0515 51.0026C95.993 51.0611 95.9199 51.0903 95.8321 51.0903H93.276C93.1883 51.0903 93.1115 51.0611 93.0457 51.0026C92.9871 50.9368 92.9579 50.8636 92.9579 50.7832C92.9579 50.6954 92.9871 50.6223 93.0457 50.5638C93.1115 50.5052 93.1883 50.476 93.276 50.476ZM94.406 48.9292C94.5011 48.9292 94.5779 48.9621 94.6364 49.0279C94.7022 49.0937 94.7351 49.1705 94.7351 49.2583V54.7654C94.7351 54.9702 94.7607 55.1238 94.8119 55.2262C94.8704 55.3286 94.9435 55.3981 95.0313 55.4346C95.1191 55.4639 95.2068 55.4785 95.2946 55.4785C95.3531 55.4785 95.4043 55.4712 95.4482 55.4566C95.4994 55.4346 95.5542 55.4237 95.6127 55.4237C95.6786 55.4237 95.7334 55.4493 95.7773 55.5004C95.8285 55.5516 95.8541 55.6175 95.8541 55.6979C95.8541 55.8003 95.7956 55.8881 95.6786 55.9612C95.5615 56.027 95.4226 56.0599 95.2617 56.0599C95.1959 56.0599 95.0971 56.0563 94.9655 56.049C94.8338 56.0343 94.6985 55.9941 94.5596 55.9283C94.4206 55.8552 94.3036 55.7308 94.2085 55.5553C94.1208 55.3798 94.0769 55.1275 94.0769 54.7983V49.2583C94.0769 49.1705 94.1061 49.0937 94.1646 49.0279C94.2305 48.9621 94.3109 48.9292 94.406 48.9292ZM101.952 50.4541C102.047 50.4541 102.124 50.487 102.183 50.5528C102.248 50.6186 102.281 50.6991 102.281 50.7941V55.7308C102.281 55.8186 102.248 55.8954 102.183 55.9612C102.117 56.027 102.04 56.0599 101.952 56.0599C101.857 56.0599 101.777 56.027 101.711 55.9612C101.652 55.8954 101.623 55.8186 101.623 55.7308V54.4253L101.81 54.3376C101.81 54.5424 101.751 54.7508 101.634 54.9629C101.524 55.175 101.371 55.3725 101.173 55.5553C100.976 55.7381 100.742 55.8881 100.471 56.0051C100.208 56.1148 99.9226 56.1696 99.6155 56.1696C99.1182 56.1696 98.672 56.0417 98.2771 55.7857C97.8895 55.5297 97.5823 55.1786 97.3556 54.7325C97.1362 54.2864 97.0265 53.7854 97.0265 53.2296C97.0265 52.6591 97.1398 52.1581 97.3665 51.7266C97.5933 51.2878 97.9004 50.9441 98.2881 50.6954C98.6757 50.4467 99.1145 50.3224 99.6045 50.3224C99.919 50.3224 100.212 50.3773 100.482 50.487C100.76 50.5967 101.001 50.7466 101.206 50.9368C101.411 51.1269 101.568 51.3463 101.678 51.595C101.795 51.8363 101.853 52.0886 101.853 52.3519L101.623 52.1874V50.7941C101.623 50.6991 101.652 50.6186 101.711 50.5528C101.777 50.487 101.857 50.4541 101.952 50.4541ZM99.6703 55.5553C100.058 55.5553 100.402 55.4566 100.702 55.2591C101.001 55.0543 101.235 54.7764 101.404 54.4253C101.579 54.067 101.667 53.6684 101.667 53.2296C101.667 52.7981 101.579 52.4104 101.404 52.0667C101.235 51.723 101.001 51.4487 100.702 51.2439C100.402 51.0391 100.058 50.9368 99.6703 50.9368C99.29 50.9368 98.9463 51.0355 98.6391 51.233C98.3393 51.4304 98.1016 51.701 97.926 52.0448C97.7578 52.3885 97.6737 52.7834 97.6737 53.2296C97.6737 53.6684 97.7578 54.067 97.926 54.4253C98.1016 54.7764 98.3393 55.0543 98.6391 55.2591C98.939 55.4566 99.2827 55.5553 99.6703 55.5553ZM106.477 50.3224C106.828 50.3224 107.15 50.3626 107.442 50.4431C107.735 50.5162 107.969 50.6186 108.144 50.7503C108.327 50.8819 108.419 51.0245 108.419 51.1781C108.419 51.2512 108.393 51.3244 108.342 51.3975C108.291 51.4633 108.221 51.4962 108.133 51.4962C108.046 51.4962 107.973 51.4743 107.914 51.4304C107.863 51.3865 107.808 51.3353 107.749 51.2768C107.698 51.2183 107.621 51.1635 107.519 51.1123C107.424 51.0684 107.289 51.0282 107.113 50.9916C106.938 50.955 106.737 50.9368 106.51 50.9368C106.1 50.9368 105.731 51.0391 105.402 51.2439C105.073 51.4487 104.813 51.7266 104.623 52.0777C104.433 52.4214 104.338 52.809 104.338 53.2405C104.338 53.6794 104.429 54.0743 104.612 54.4253C104.795 54.7764 105.047 55.0543 105.369 55.2591C105.691 55.4566 106.067 55.5553 106.499 55.5553C106.791 55.5553 107.018 55.5297 107.179 55.4785C107.34 55.4273 107.479 55.3688 107.596 55.303C107.735 55.2225 107.834 55.1457 107.892 55.0726C107.958 54.9921 108.042 54.9519 108.144 54.9519C108.239 54.9519 108.309 54.9812 108.353 55.0397C108.404 55.0909 108.43 55.1604 108.43 55.2481C108.43 55.3651 108.342 55.4968 108.166 55.6431C107.998 55.782 107.764 55.9064 107.464 56.0161C107.164 56.1184 106.821 56.1696 106.433 56.1696C105.884 56.1696 105.402 56.0417 104.985 55.7857C104.575 55.5297 104.254 55.1823 104.019 54.7435C103.793 54.2974 103.679 53.7964 103.679 53.2405C103.679 52.7066 103.796 52.2203 104.03 51.7815C104.265 51.3427 104.59 50.9916 105.007 50.7283C105.431 50.4577 105.921 50.3224 106.477 50.3224ZM109.325 50.476H111.881C111.968 50.476 112.042 50.5089 112.1 50.5747C112.159 50.6332 112.188 50.7064 112.188 50.7941C112.188 50.8746 112.159 50.9441 112.1 51.0026C112.042 51.0611 111.968 51.0903 111.881 51.0903H109.325C109.237 51.0903 109.16 51.0611 109.094 51.0026C109.036 50.9368 109.006 50.8636 109.006 50.7832C109.006 50.6954 109.036 50.6223 109.094 50.5638C109.16 50.5052 109.237 50.476 109.325 50.476ZM110.455 48.9292C110.55 48.9292 110.626 48.9621 110.685 49.0279C110.751 49.0937 110.784 49.1705 110.784 49.2583V54.7654C110.784 54.9702 110.809 55.1238 110.86 55.2262C110.919 55.3286 110.992 55.3981 111.08 55.4346C111.168 55.4639 111.255 55.4785 111.343 55.4785C111.402 55.4785 111.453 55.4712 111.497 55.4566C111.548 55.4346 111.603 55.4237 111.661 55.4237C111.727 55.4237 111.782 55.4493 111.826 55.5004C111.877 55.5516 111.903 55.6175 111.903 55.6979C111.903 55.8003 111.844 55.8881 111.727 55.9612C111.61 56.027 111.471 56.0599 111.31 56.0599C111.244 56.0599 111.146 56.0563 111.014 56.049C110.882 56.0343 110.747 55.9941 110.608 55.9283C110.469 55.8552 110.352 55.7308 110.257 55.5553C110.169 55.3798 110.125 55.1275 110.125 54.7983V49.2583C110.125 49.1705 110.155 49.0937 110.213 49.0279C110.279 48.9621 110.359 48.9292 110.455 48.9292ZM116.908 56.0599C116.806 56.0599 116.722 56.027 116.656 55.9612C116.598 55.8954 116.568 55.8186 116.568 55.7308V48.7098C116.568 48.622 116.601 48.5452 116.667 48.4794C116.733 48.4136 116.81 48.3806 116.897 48.3806H120.891C120.986 48.3806 121.063 48.4136 121.121 48.4794C121.187 48.5379 121.22 48.6147 121.22 48.7098C121.22 48.7975 121.187 48.8743 121.121 48.9401C121.063 48.9986 120.986 49.0279 120.891 49.0279H117.194L117.238 48.9621V51.8802L117.183 51.7815H120.397C120.492 51.7815 120.569 51.8144 120.627 51.8802C120.693 51.9387 120.726 52.0119 120.726 52.0996C120.726 52.1947 120.693 52.2715 120.627 52.33C120.569 52.3885 120.492 52.4178 120.397 52.4178H117.161L117.238 52.33V55.7308C117.238 55.8186 117.205 55.8954 117.139 55.9612C117.08 56.027 117.004 56.0599 116.908 56.0599ZM127.679 53.2515C127.679 53.8073 127.558 54.3083 127.317 54.7545C127.075 55.1933 126.746 55.5407 126.329 55.7966C125.912 56.0453 125.437 56.1696 124.903 56.1696C124.384 56.1696 123.912 56.0453 123.488 55.7966C123.071 55.5407 122.738 55.1933 122.49 54.7545C122.248 54.3083 122.128 53.8073 122.128 53.2515C122.128 52.6884 122.248 52.1874 122.49 51.7486C122.738 51.3097 123.071 50.9624 123.488 50.7064C123.912 50.4504 124.384 50.3224 124.903 50.3224C125.437 50.3224 125.912 50.4504 126.329 50.7064C126.746 50.9624 127.075 51.3097 127.317 51.7486C127.558 52.1874 127.679 52.6884 127.679 53.2515ZM127.021 53.2515C127.021 52.8054 126.929 52.4104 126.746 52.0667C126.563 51.7157 126.311 51.4414 125.989 51.2439C125.675 51.0391 125.313 50.9368 124.903 50.9368C124.508 50.9368 124.15 51.0391 123.828 51.2439C123.506 51.4414 123.25 51.7157 123.06 52.0667C122.877 52.4104 122.786 52.8054 122.786 53.2515C122.786 53.6976 122.877 54.0926 123.06 54.4363C123.25 54.7801 123.506 55.0543 123.828 55.2591C124.15 55.4566 124.508 55.5553 124.903 55.5553C125.313 55.5553 125.675 55.4566 125.989 55.2591C126.311 55.0543 126.563 54.7801 126.746 54.4363C126.929 54.0926 127.021 53.6976 127.021 53.2515ZM129.407 56.0599C129.304 56.0599 129.224 56.027 129.165 55.9612C129.107 55.8954 129.078 55.8186 129.078 55.7308V50.8161C129.078 50.7283 129.107 50.6515 129.165 50.5857C129.231 50.5199 129.312 50.487 129.407 50.487C129.502 50.487 129.579 50.5199 129.637 50.5857C129.703 50.6515 129.736 50.7283 129.736 50.8161V52.4616L129.571 52.4946C129.593 52.2386 129.655 51.9863 129.758 51.7376C129.868 51.4816 130.014 51.2476 130.197 51.0355C130.379 50.8234 130.595 50.6515 130.844 50.5199C131.1 50.3882 131.385 50.3224 131.7 50.3224C131.831 50.3224 131.959 50.3517 132.084 50.4102C132.208 50.4614 132.27 50.5491 132.27 50.6735C132.27 50.7832 132.241 50.8673 132.182 50.9258C132.124 50.9843 132.054 51.0135 131.974 51.0135C131.908 51.0135 131.835 50.9953 131.754 50.9587C131.681 50.9221 131.583 50.9038 131.458 50.9038C131.253 50.9038 131.049 50.966 130.844 51.0903C130.639 51.2074 130.453 51.3683 130.284 51.573C130.116 51.7778 129.981 52.0082 129.878 52.2642C129.783 52.5128 129.736 52.7652 129.736 53.0211V55.7308C129.736 55.8186 129.703 55.8954 129.637 55.9612C129.571 56.027 129.495 56.0599 129.407 56.0599ZM135.822 50.4102C136.275 50.4102 136.663 50.5308 136.985 50.7722C137.307 51.0062 137.526 51.3573 137.643 51.8254L137.489 51.8692L137.555 51.6718C137.65 51.4524 137.808 51.2476 138.027 51.0574C138.254 50.86 138.51 50.7027 138.795 50.5857C139.08 50.4687 139.369 50.4102 139.662 50.4102C140.122 50.4102 140.492 50.5089 140.77 50.7064C141.055 50.9038 141.26 51.1708 141.384 51.5072C141.516 51.8363 141.581 52.2093 141.581 52.6262V55.7308C141.581 55.8186 141.548 55.8954 141.483 55.9612C141.424 56.027 141.347 56.0599 141.252 56.0599C141.157 56.0599 141.077 56.027 141.011 55.9612C140.952 55.8954 140.923 55.8186 140.923 55.7308V52.6591C140.923 52.3593 140.876 52.085 140.781 51.8363C140.685 51.5877 140.535 51.3902 140.331 51.2439C140.126 51.0977 139.852 51.0245 139.508 51.0245C139.208 51.0245 138.919 51.0977 138.641 51.2439C138.371 51.3902 138.148 51.5877 137.972 51.8363C137.804 52.085 137.72 52.3593 137.72 52.6591V55.7308C137.72 55.8186 137.687 55.8954 137.621 55.9612C137.563 56.027 137.486 56.0599 137.391 56.0599C137.296 56.0599 137.215 56.027 137.149 55.9612C137.091 55.8954 137.062 55.8186 137.062 55.7308V52.6262C137.062 52.3263 137.018 52.0557 136.93 51.8144C136.842 51.573 136.7 51.3829 136.502 51.2439C136.305 51.0977 136.038 51.0245 135.701 51.0245C135.401 51.0245 135.116 51.0977 134.846 51.2439C134.582 51.3829 134.366 51.573 134.198 51.8144C134.037 52.0557 133.957 52.3263 133.957 52.6262V55.7308C133.957 55.8186 133.924 55.8954 133.858 55.9612C133.792 56.027 133.716 56.0599 133.628 56.0599C133.525 56.0599 133.445 56.027 133.386 55.9612C133.328 55.8954 133.299 55.8186 133.299 55.7308V50.8161C133.299 50.7283 133.328 50.6515 133.386 50.5857C133.452 50.5199 133.533 50.487 133.628 50.487C133.723 50.487 133.8 50.5199 133.858 50.5857C133.924 50.6515 133.957 50.7283 133.957 50.8161V51.8363L133.661 52.2422C133.683 52.0228 133.752 51.8034 133.869 51.584C133.993 51.3646 134.154 51.1671 134.352 50.9916C134.549 50.8161 134.772 50.6771 135.021 50.5747C135.277 50.465 135.544 50.4102 135.822 50.4102ZM147.391 56.0928C147.303 56.0928 147.222 56.0636 147.149 56.0051C147.076 55.9466 147.04 55.8734 147.04 55.7857C147.04 55.7345 147.051 55.6796 147.073 55.6211L149.991 48.9182L150.111 49.0718H146.403C146.316 49.0718 146.239 49.0425 146.173 48.984C146.114 48.9182 146.085 48.8414 146.085 48.7536C146.085 48.6586 146.114 48.5818 146.173 48.5233C146.239 48.4648 146.316 48.4355 146.403 48.4355H150.429C150.539 48.4355 150.62 48.4648 150.671 48.5233C150.722 48.5818 150.748 48.6549 150.748 48.7427C150.748 48.8012 150.737 48.856 150.715 48.9072L147.698 55.8734C147.676 55.9393 147.636 55.9941 147.577 56.038C147.519 56.0746 147.457 56.0928 147.391 56.0928Z" fill="black"/>
<mask id="mask0_1637_916" style="mask-type:luminance" maskUnits="userSpaceOnUse" x="51" y="42" width="19" height="20">
<path d="M60.2509 61.3294C65.3255 61.3294 69.4392 57.2156 69.4392 52.141C69.4392 47.0664 65.3255 42.9527 60.2509 42.9527C55.1763 42.9527 51.0625 47.0664 51.0625 52.141C51.0625 57.2156 55.1763 61.3294 60.2509 61.3294Z" fill="white"/>
</mask>
<g mask="url(#mask0_1637_916)">
<path d="M60.2509 61.3294C65.3255 61.3294 69.4392 57.2156 69.4392 52.141C69.4392 47.0664 65.3255 42.9527 60.2509 42.9527C55.1763 42.9527 51.0625 47.0664 51.0625 52.141C51.0625 57.2156 55.1763 61.3294 60.2509 61.3294Z" fill="#33C6F4"/>
<path d="M69.7115 55.9429C65.4864 54.0443 61.1386 48.7077 60.7723 48.4633C60.4061 48.2188 59.9148 48.5242 59.9148 48.5242C59.6087 48.0345 59.119 48.5851 59.119 48.5851C56.8526 52.4432 50.7905 56.1264 50.7905 56.1264C50.7905 56.1264 53.7017 61.4804 60.4306 61.4804C67.2718 61.4804 69.7115 55.9429 69.7115 55.9429Z" fill="#1B447E"/>
<path d="M56.1169 51.8918C56.1169 51.8918 57.3415 51.3381 57.0963 52.2597C56.8511 53.1813 55.8717 54.5253 56.1779 54.5862C56.484 54.6471 57.3447 53.7904 57.5868 53.9122C57.8288 54.0341 58.0155 53.9739 57.8929 54.4027C57.7703 54.8315 57.6477 55.1376 57.8929 55.1376C58.1381 55.1376 58.3217 54.5839 58.6278 54.0348C58.934 53.4858 59.4236 53.7287 59.6072 53.9122C59.7907 54.0958 60.3421 55.1376 60.7708 55.015C61.1996 54.8924 61.4441 54.341 61.2605 53.1164C61.077 51.8918 61.3831 51.5248 61.3831 51.5248C61.3831 51.5248 61.7502 51.3412 62.4242 52.198C63.0982 53.0547 64.3228 54.341 64.5055 54.2801C64.6883 54.2192 63.6488 52.872 63.8932 52.7493C64.1377 52.6267 65.1178 52.9329 65.6083 53.3616C65.6083 53.3616 65.776 54.0633 65.776 53.3901L60.7708 48.4633L59.9133 48.5234L59.1175 48.5843C59.1175 48.5843 57.158 51.5248 56.1169 51.8918Z" fill="white"/>
<path d="M69.7115 56.1264C65.4864 54.2278 61.1386 48.7077 60.7723 48.4633C60.4061 48.2188 59.9148 48.5242 59.9148 48.5242C59.6087 48.0345 59.119 48.5851 59.119 48.5851C56.8526 52.4432 50.7905 56.1264 50.7905 56.1264" stroke="#221E1F" stroke-width="0.566411" stroke-miterlimit="10"/>
</g>
<path d="M60.2509 61.3294C65.3255 61.3294 69.4392 57.2156 69.4392 52.141C69.4392 47.0664 65.3255 42.9527 60.2509 42.9527C55.1763 42.9527 51.0625 47.0664 51.0625 52.141C51.0625 57.2156 55.1763 61.3294 60.2509 61.3294Z" stroke="#221E1F" stroke-width="0.566411" stroke-miterlimit="10"/>
</svg>
