<svg width="20" height="20" viewBox="0 0 20 20" fill="none" xmlns="http://www.w3.org/2000/svg">
<mask id="path-1-inside-1_370_877" fill="white">
<path d="M18.6664 9.66668C18.6664 7.70831 18.0031 5.80767 16.7847 4.27451C15.5662 2.74134 13.8644 1.66604 11.9566 1.22384C10.0489 0.781637 8.04754 0.998608 6.27885 1.83939C4.51015 2.68018 3.07836 4.0952 2.2168 5.85387L3.85194 7.31709C4.4833 6.02834 5.97696 4.54697 7.27306 3.93084C8.56916 3.31472 10.0357 3.15572 11.4338 3.47976C12.8318 3.80381 14.0788 4.59179 14.9717 5.7153C15.8646 6.8388 16.3506 8.23159 16.3506 9.66668H18.6664Z"/>
</mask>
<path d="M18.6664 9.66668C18.6664 7.70831 18.0031 5.80767 16.7847 4.27451C15.5662 2.74134 13.8644 1.66604 11.9566 1.22384C10.0489 0.781637 8.04754 0.998608 6.27885 1.83939C4.51015 2.68018 3.07836 4.0952 2.2168 5.85387L3.85194 7.31709C4.4833 6.02834 5.97696 4.54697 7.27306 3.93084C8.56916 3.31472 10.0357 3.15572 11.4338 3.47976C12.8318 3.80381 14.0788 4.59179 14.9717 5.7153C15.8646 6.8388 16.3506 8.23159 16.3506 9.66668H18.6664Z" fill="#72AEE6"/>
<path d="M18.6664 9.66668V13.6667H22.6664L22.6664 9.66668L18.6664 9.66668ZM2.2168 5.85387L-1.37531 4.09411L-2.70804 6.81455L-0.450585 8.83465L2.2168 5.85387ZM3.85194 7.31709L1.18456 10.2979L5.12044 13.8199L7.44405 9.07685L3.85194 7.31709ZM16.3506 9.66668H12.3506V13.6667H16.3506V9.66668ZM22.6664 9.66668C22.6664 6.80445 21.697 4.0266 19.9162 1.78582L13.6531 6.7632C14.3092 7.58875 14.6664 8.61217 14.6664 9.66668L22.6664 9.66668ZM19.9162 1.78582C18.1354 -0.454963 15.6482 -2.02656 12.8599 -2.67285L11.0534 5.12053C12.0807 5.35864 12.9971 5.93765 13.6531 6.7632L19.9162 1.78582ZM12.8599 -2.67285C10.0715 -3.31915 7.14655 -3.00204 4.56153 -1.7732L7.99617 5.45198C8.94854 4.99925 10.0262 4.88242 11.0534 5.12053L12.8599 -2.67285ZM4.56153 -1.7732C1.97652 -0.544363 -0.116107 1.52375 -1.37531 4.09411L5.80891 7.61363C6.27283 6.66665 7.04379 5.90471 7.99617 5.45198L4.56153 -1.7732ZM-0.450585 8.83465L1.18456 10.2979L6.51933 4.33631L4.88418 2.87308L-0.450585 8.83465ZM7.44405 9.07685C7.50982 8.94262 7.73248 8.60547 8.12798 8.21376C8.52402 7.82152 8.86053 7.60516 8.99038 7.54343L5.55574 0.318249C4.3895 0.872648 3.33112 1.70504 2.49846 2.52971C1.66527 3.35491 0.825426 4.40282 0.259834 5.55734L7.44405 9.07685ZM8.99038 7.54343C9.47016 7.31536 10.013 7.25651 10.5305 7.37646L12.337 -0.416929C10.0584 -0.945067 7.66816 -0.685931 5.55574 0.318249L8.99038 7.54343ZM10.5305 7.37646C11.0481 7.49641 11.5097 7.7881 11.8402 8.20399L18.1032 3.2266C16.648 1.39548 14.6155 0.111209 12.337 -0.416929L10.5305 7.37646ZM11.8402 8.20399C12.1707 8.61988 12.3506 9.13545 12.3506 9.66668H20.3506C20.3506 7.32772 19.5585 5.05772 18.1032 3.2266L11.8402 8.20399ZM16.3506 13.6667H18.6664V5.66668H16.3506V13.6667Z" fill="#72AEE6" mask="url(#path-1-inside-1_370_877)"/>
<mask id="path-3-inside-2_370_877" fill="white">
<path d="M1.3335 9.6665C1.3335 11.5612 1.95441 13.4038 3.1012 14.912C4.24798 16.4203 5.85744 17.5112 7.6832 18.0177C9.50897 18.5243 11.4504 18.4185 13.2104 17.7167C14.9703 17.0149 16.4518 15.7556 17.428 14.1318L15.962 12.5388C15.2369 13.7451 13.692 15.1249 12.3847 15.6462C11.0774 16.1675 9.6353 16.246 8.27913 15.8698C6.92295 15.4935 5.72744 14.6832 4.87561 13.5629C4.02378 12.4425 3.56256 11.0739 3.56256 9.6665H1.3335Z"/>
</mask>
<path d="M1.3335 9.6665C1.3335 11.5612 1.95441 13.4038 3.1012 14.912C4.24798 16.4203 5.85744 17.5112 7.6832 18.0177C9.50897 18.5243 11.4504 18.4185 13.2104 17.7167C14.9703 17.0149 16.4518 15.7556 17.428 14.1318L15.962 12.5388C15.2369 13.7451 13.692 15.1249 12.3847 15.6462C11.0774 16.1675 9.6353 16.246 8.27913 15.8698C6.92295 15.4935 5.72744 14.6832 4.87561 13.5629C4.02378 12.4425 3.56256 11.0739 3.56256 9.6665H1.3335Z" fill="#72AEE6"/>
<path d="M1.3335 9.6665V5.6665H-2.6665L-2.6665 9.6665L1.3335 9.6665ZM17.428 14.1318L20.8562 16.1926L22.399 13.6263L20.3712 11.423L17.428 14.1318ZM15.962 12.5388L18.9052 9.8301L15.2868 5.89839L12.5338 10.478L15.962 12.5388ZM3.56256 9.6665L7.56256 9.6665L7.56256 5.6665H3.56256V9.6665ZM-2.6665 9.6665C-2.6665 12.4357 -1.75901 15.1286 -0.0829393 17.333L6.28534 12.491C5.66784 11.6789 5.3335 10.6867 5.3335 9.6665L-2.6665 9.6665ZM-0.0829393 17.333C1.59313 19.5374 3.94542 21.1318 6.61384 21.8721L8.75257 14.1633C7.76947 13.8906 6.90284 13.3032 6.28534 12.491L-0.0829393 17.333ZM6.61384 21.8721C9.28226 22.6125 12.1198 22.4579 14.692 21.4322L11.7287 14.0012C10.7811 14.3791 9.73567 14.4361 8.75257 14.1633L6.61384 21.8721ZM14.692 21.4322C17.2642 20.4064 19.4295 18.566 20.8562 16.1926L13.9998 12.0709C13.4741 12.9453 12.6764 13.6233 11.7287 14.0012L14.692 21.4322ZM20.3712 11.423L18.9052 9.8301L13.0188 15.2476L14.4847 16.8405L20.3712 11.423ZM12.5338 10.478C12.4361 10.6405 12.1696 10.9782 11.7559 11.3406C11.3341 11.7101 11.0054 11.8899 10.9031 11.9307L13.8663 19.3617C15.0713 18.8812 16.1687 18.1104 17.0274 17.3581C17.8942 16.5988 18.7628 15.6434 19.3902 14.5997L12.5338 10.478ZM10.9031 11.9307C10.4081 12.1281 9.86201 12.1579 9.34849 12.0154L7.20976 19.7242C9.4086 20.3342 11.7468 20.2069 13.8663 19.3617L10.9031 11.9307ZM9.34849 12.0154C8.83498 11.8729 8.3823 11.5661 8.05975 11.1419L1.69147 15.9839C3.07259 17.8003 5.01093 19.1142 7.20976 19.7242L9.34849 12.0154ZM8.05975 11.1419C7.7372 10.7176 7.56256 10.1994 7.56256 9.6665L-0.437437 9.6665C-0.437437 11.9484 0.310357 14.1674 1.69147 15.9839L8.05975 11.1419ZM3.56256 5.6665H1.3335V13.6665H3.56256V5.6665Z" fill="#72AEE6" mask="url(#path-3-inside-2_370_877)"/>
<path d="M14.6922 9.47388L17.3321 12.5554L19.9998 9.44434H18.3168H16.4564H14.6665L14.6922 9.47388Z" fill="#72AEE6"/>
<path d="M5.30779 10.7483L2.66791 7.66672L0.000162601 10.7778L1.68324 10.7778L3.54358 10.7778L5.3335 10.7778L5.30779 10.7483Z" fill="#72AEE6"/>
</svg>
