<svg width="199" height="174" viewBox="0 0 199 174" fill="none" xmlns="http://www.w3.org/2000/svg">
<path fill-rule="evenodd" clip-rule="evenodd" d="M178.989 103.636L159.189 77.8032L158.996 77.5555H172.421C172.228 76.0935 171.992 74.6452 171.714 73.2101C165.202 39.4201 135.317 13.7944 99.4998 13.7944C67.9787 13.7944 41.0296 33.6421 30.5829 61.4345L20.954 48.8675C35.1839 19.9615 65.041 0.00317383 99.4998 0.00317383C142.978 0.00317383 179.141 31.7681 185.792 73.2101C186.014 74.6452 186.221 76.0935 186.374 77.5555H198.997L178.989 103.636ZM40.0047 96.4481H26.5783C26.7726 97.9113 27.009 99.3618 27.2852 100.793C33.7974 134.584 63.6838 160.208 99.4998 160.208C131.021 160.208 157.97 140.364 168.417 112.574L178.047 125.136C163.817 154.046 133.957 174.002 99.4998 174.002C56.0219 174.002 19.8593 142.239 13.2092 100.793C12.9868 99.3618 12.7781 97.9113 12.6262 96.4481H0.00415039L20.0107 70.3713L39.8097 96.2017L40.0047 96.4481Z" fill="#4169E1"/>
<path d="M116.15 120.718C116.149 121.398 115.879 122.051 115.399 122.532C114.919 123.012 114.268 123.283 113.59 123.283H86.2744C85.5956 123.283 84.9446 123.014 84.4642 122.533C83.9839 122.052 83.7135 121.401 83.7124 120.72V80.6589C83.7121 80.3216 83.7782 79.9877 83.9069 79.6761C84.0355 79.3645 84.2242 79.0814 84.4622 78.843C84.7002 78.6045 84.9827 78.4154 85.2937 78.2865C85.6046 78.1576 85.9379 78.0914 86.2744 78.0916H103.805L116.15 90.7069V120.718Z" fill="#23A566"/>
<path d="M105.164 90.378L116.151 100.9V90.6335H106.419C105.994 90.6383 105.575 90.5326 105.203 90.3269L105.164 90.378Z" fill="#1C8F5A"/>
<path d="M116.149 90.6868H106.39C105.711 90.6863 105.06 90.4158 104.58 89.9349C104.101 89.4539 103.831 88.8018 103.83 88.1216V78.0225L116.149 90.6868Z" fill="#8ED1B1"/>
<path fill-rule="evenodd" clip-rule="evenodd" d="M108.34 114.953H91.4607V100.288H108.34V114.953ZM100.95 102.403V104.971H106.266V102.407L100.95 102.403ZM100.95 106.587V109.04H106.266V106.575L100.95 106.587ZM100.95 110.604V112.875H106.266V110.591L100.95 110.604ZM98.8632 112.862V110.591H93.5495V112.862H98.8632ZM98.8632 109.014V106.575H93.5495V109.026L98.8632 109.014ZM98.8632 104.997V102.403H93.5495V104.971L98.8632 104.997Z" fill="white"/>
<path d="M76.7584 133.909C76.7584 132.734 75.8748 131.93 74.849 131.93C73.8231 131.93 72.9388 132.734 72.9388 133.909C72.9388 135.072 73.8231 135.887 74.849 135.887C75.8748 135.887 76.7584 135.07 76.7584 133.909ZM78.2454 133.909C78.2454 135.788 76.7204 137.174 74.8482 137.174C72.9768 137.174 71.4518 135.788 71.4518 133.909C71.4518 132.016 72.9768 130.644 74.849 130.644C76.7204 130.644 78.2454 132.016 78.2454 133.909ZM84.0853 133.909C84.0853 132.734 83.2018 131.93 82.1759 131.93C81.1501 131.93 80.2665 132.734 80.2665 133.909C80.2665 135.072 81.1501 135.887 82.1759 135.887C83.2018 135.887 84.0853 135.07 84.0853 133.909ZM85.5723 133.909C85.5723 135.788 84.0473 137.174 82.1759 137.174C80.3045 137.174 78.7788 135.788 78.7788 133.909C78.7788 132.017 80.3045 130.644 82.1759 130.644C84.0473 130.644 85.5723 132.016 85.5723 133.909ZM91.2886 133.92C91.2886 132.77 90.493 131.93 89.4813 131.93C88.4547 131.93 87.5957 132.77 87.5957 133.92C87.5957 135.058 88.4547 135.887 89.4805 135.887C90.493 135.887 91.2886 135.058 91.2886 133.92ZM92.5953 130.841V136.703C92.5953 139.114 91.1203 140.099 89.377 140.099C88.7434 140.11 88.1208 139.933 87.5871 139.59C87.0533 139.248 86.6322 138.756 86.3762 138.175L87.6702 137.655C87.9012 138.187 88.4659 138.814 89.3762 138.814C90.4915 138.814 91.1828 138.15 91.1828 136.9V136.43H91.1307C90.7984 136.826 90.157 137.172 89.3479 137.172C87.6553 137.172 86.1043 135.75 86.1043 133.921C86.1043 132.077 87.6553 130.644 89.3479 130.644C90.1555 130.644 90.7969 130.989 91.1314 131.374H91.1836V130.842H92.5953V130.841ZM94.9234 127.403H93.4729V136.973H94.9227L94.9234 127.403ZM97.0221 133.807L100.048 132.596C99.8821 132.187 99.3807 131.904 98.7922 131.904C98.036 131.904 96.9841 132.547 97.0221 133.807ZM100.575 134.981L101.729 135.723C101.411 136.176 100.988 136.545 100.497 136.797C100.005 137.049 99.4599 137.177 98.9076 137.171C96.9841 137.171 95.5477 135.738 95.5477 133.906C95.5477 131.964 96.9967 130.641 98.7415 130.641C100.498 130.641 101.358 131.989 101.639 132.717L101.793 133.088L97.2664 134.896C97.6128 135.552 98.1522 135.885 98.9076 135.885C99.6653 135.885 100.19 135.526 100.575 134.981ZM65.962 133.058V131.672H70.803C70.8499 131.913 70.8745 132.199 70.8745 132.508C70.8745 133.547 70.5802 134.833 69.6303 135.748C68.7066 136.676 67.5265 137.171 65.9635 137.171C63.0655 137.171 60.6294 134.894 60.6294 132.101C60.6294 129.307 63.0655 127.03 65.9635 127.03C67.5667 127.03 68.708 127.637 69.5663 128.427L68.5531 129.405C67.9377 128.848 67.1041 128.416 65.962 128.416C63.8463 128.416 62.1916 130.06 62.1916 132.101C62.1916 134.142 63.8463 135.785 65.962 135.785C67.3343 135.785 68.1158 135.254 68.6164 134.771C69.0232 134.379 69.2899 133.82 69.3957 133.056L65.962 133.058ZM110.496 134.963C110.496 135.719 110.219 136.327 109.665 136.785C109.103 137.236 108.421 137.461 107.618 137.461C106.903 137.461 106.273 137.252 105.727 136.833C105.181 136.415 104.803 135.844 104.595 135.12L105.655 134.686C105.727 134.943 105.827 135.176 105.956 135.385C106.084 135.594 106.233 135.776 106.401 135.929C106.578 136.074 106.771 136.19 106.98 136.278C107.188 136.359 107.409 136.399 107.642 136.399C108.148 136.399 108.561 136.271 108.882 136.013C109.203 135.747 109.364 135.397 109.364 134.963C109.364 134.601 109.232 134.291 108.966 134.034C108.718 133.785 108.252 133.543 107.57 133.31C106.879 133.061 106.45 132.892 106.281 132.802C105.366 132.337 104.908 131.648 104.908 130.739C104.908 130.104 105.161 129.561 105.667 129.11C106.181 128.66 106.811 128.435 107.558 128.435C108.216 128.435 108.786 128.603 109.267 128.942C109.749 129.271 110.071 129.686 110.231 130.184L109.196 130.619C109.098 130.295 108.894 130.015 108.617 129.822C108.336 129.605 107.991 129.496 107.582 129.496C107.148 129.496 106.783 129.617 106.486 129.858C106.188 130.084 106.039 130.377 106.039 130.739C106.039 131.038 106.156 131.294 106.39 131.512C106.647 131.728 107.205 131.986 108.064 132.284C108.938 132.581 109.561 132.948 109.93 133.382C110.307 133.809 110.496 134.336 110.496 134.963ZM111.637 128.627H112.745V131.355L112.697 132.176H112.745C112.913 131.886 113.17 131.645 113.516 131.452C113.851 131.264 114.228 131.164 114.612 131.162C115.334 131.162 115.888 131.371 116.273 131.789C116.667 132.199 116.863 132.787 116.863 133.55V137.268H115.756V133.768C115.756 132.706 115.286 132.175 114.347 132.175C113.897 132.175 113.516 132.364 113.202 132.743C112.899 133.108 112.737 133.571 112.745 134.046V137.268H111.637V128.627ZM120.814 137.461C119.947 137.461 119.232 137.163 118.67 136.568C118.108 135.973 117.827 135.22 117.827 134.311C117.827 133.41 118.1 132.662 118.646 132.067C119.192 131.463 119.89 131.162 120.742 131.162C121.616 131.162 122.311 131.448 122.825 132.019C123.347 132.581 123.608 133.374 123.608 134.395L123.596 134.516H118.959C118.975 135.096 119.168 135.562 119.537 135.916C119.907 136.27 120.348 136.448 120.862 136.448C121.569 136.448 122.122 136.094 122.524 135.385L123.512 135.868C123.258 136.354 122.875 136.76 122.404 137.039C121.937 137.32 121.408 137.461 120.814 137.461ZM119.043 133.6H122.428C122.416 133.405 122.365 133.215 122.278 133.041C122.191 132.867 122.07 132.712 121.922 132.586C121.625 132.312 121.223 132.175 120.717 132.175C120.3 132.175 119.939 132.304 119.633 132.561C119.337 132.819 119.14 133.166 119.043 133.6ZM127.33 137.461C126.463 137.461 125.747 137.163 125.186 136.568C124.624 135.973 124.342 135.22 124.342 134.311C124.342 133.41 124.616 132.662 125.162 132.067C125.708 131.463 126.406 131.162 127.257 131.162C128.132 131.162 128.826 131.448 129.34 132.019C129.863 132.581 130.123 133.374 130.123 134.395L130.111 134.516H125.475C125.491 135.096 125.683 135.562 126.053 135.916C126.422 136.27 126.863 136.448 127.377 136.448C128.084 136.448 128.638 136.094 129.039 135.385L130.027 135.868C129.774 136.354 129.39 136.76 128.919 137.039C128.453 137.32 127.923 137.461 127.33 137.461ZM125.559 133.6H128.943C128.932 133.405 128.881 133.215 128.794 133.041C128.707 132.867 128.586 132.712 128.437 132.586C128.14 132.312 127.739 132.175 127.233 132.175C126.816 132.175 126.454 132.304 126.149 132.561C125.852 132.819 125.655 133.166 125.559 133.6ZM133.296 137.364C132.815 137.364 132.413 137.215 132.092 136.918C131.779 136.62 131.619 136.206 131.61 135.675V132.368H130.575V131.355H131.61V129.545H132.718V131.355H134.163V132.369H132.718V135.313C132.718 135.707 132.795 135.977 132.948 136.121C133.1 136.258 133.272 136.327 133.465 136.327C133.553 136.327 133.637 136.319 133.718 136.303C133.807 136.278 133.886 136.25 133.959 136.218L134.308 137.207C134.019 137.312 133.682 137.364 133.296 137.364ZM139.851 135.626C139.851 136.141 139.626 136.576 139.177 136.93C138.727 137.284 138.161 137.461 137.479 137.461C136.885 137.461 136.363 137.308 135.913 137.002C135.473 136.701 135.137 136.271 134.95 135.771L135.937 135.349C136.082 135.703 136.29 135.981 136.564 136.182C136.845 136.375 137.149 136.471 137.479 136.471C137.833 136.471 138.125 136.395 138.358 136.242C138.599 136.089 138.719 135.909 138.719 135.699C138.719 135.321 138.43 135.043 137.852 134.866L136.841 134.613C135.692 134.324 135.119 133.768 135.119 132.948C135.119 132.409 135.335 131.978 135.769 131.657C136.211 131.327 136.772 131.162 137.455 131.162C137.976 131.162 138.446 131.286 138.864 131.536C139.29 131.785 139.586 132.119 139.755 132.537L138.767 132.948C138.654 132.697 138.458 132.493 138.213 132.369C137.957 132.222 137.666 132.147 137.371 132.151C137.082 132.151 136.821 132.224 136.588 132.368C136.363 132.514 136.25 132.69 136.25 132.899C136.25 133.238 136.568 133.479 137.202 133.624L138.093 133.853C139.265 134.142 139.851 134.734 139.851 135.626Z" fill="#787879"/>
<g clip-path="url(#clip0_1626_3057)">
<path d="M67.2345 48.81C68.7771 48.81 70.3196 49.5492 70.7622 51.3426H69.1298C68.7418 50.5938 68.1197 50.2981 67.2313 50.2981C65.7786 50.2981 64.9576 51.3876 64.9576 52.7632C64.9576 54.2288 65.8459 55.2188 67.2313 55.2188C68.296 55.2188 69.0721 54.9006 69.4056 53.7435H67.2859V52.3551H70.9257C70.9706 53.0943 70.9482 53.8078 70.6916 54.5117C70.1048 56.064 68.7162 56.7133 67.2313 56.7133C65.1789 56.7133 63.2708 55.3152 63.2708 52.76C63.2708 50.2049 65.1917 48.81 67.2345 48.81Z" fill="#474747"/>
<path d="M79.2377 56.3726V56.604H77.4643L75.8672 54.0617H74.4786V56.604H72.8142V48.8968C73.9238 48.8968 75.0206 48.8872 76.1302 48.8968C77.9036 48.8968 78.8689 50.1728 78.8689 51.5387C78.8689 52.519 78.3686 53.3771 77.4835 53.8078L79.2377 56.3726ZM76.1206 52.7054C76.8197 52.7054 77.2751 52.1655 77.2622 51.5066C77.2622 50.8574 76.8293 50.3399 76.1206 50.3399H74.4562V52.7086H76.1206V52.7054Z" fill="#474747"/>
<path d="M82.7816 55.3377L82.1819 56.6137H80.4502V56.3919L84.0227 48.839H84.7892L88.3393 56.3919V56.6137H86.6204L86.011 55.3377H82.7816ZM83.3268 53.9525H85.4787L84.4012 51.4102L83.3268 53.9525Z" fill="#474747"/>
<path d="M91.6628 53.2582L92.4838 51.3716L93.526 48.9065H95.2899V49.1475L91.9835 56.604H91.294L87.9556 49.1475V48.9065H89.7194L90.7616 51.3588L91.6275 53.2582H91.6628Z" fill="#474747"/>
<path d="M96.8667 56.6169V48.8872H98.5311V56.6169H96.8667Z" fill="#474747"/>
<path d="M100.116 50.3399V48.9065H106.651V50.3367H104.195V56.6137H102.585V50.3399H100.116Z" fill="#474747"/>
<path d="M111.193 52.024L111.959 50.4941L112.893 48.9096H114.657V49.1507L111.995 53.5346V56.6168H110.33V53.5346L107.656 49.1507V48.9096H109.442L110.407 50.5488L111.139 52.024H111.193Z" fill="#474747"/>
<path d="M59.1507 55.2537C59.1539 55.89 58.7114 56.6775 58.1598 56.9989L53.8593 59.5283C53.3109 59.8497 52.4097 59.8561 51.8581 59.5412L47.5223 57.0728C46.9707 56.7578 46.5121 55.98 46.5089 55.3404L46.4737 50.3426C46.4704 49.7063 46.913 48.9188 47.4614 48.5974L51.7651 46.068C52.3135 45.7466 53.2147 45.7402 53.7663 46.0551L58.102 48.5235C58.6536 48.8385 59.1122 49.6163 59.1154 50.2559L59.1507 55.2537Z" fill="#F15A2B"/>
<path d="M51.5945 51.6415H57.29V50.028H51.6073C50.7959 50.028 50.1225 50.3077 49.6062 50.8605C48.3683 52.1911 48.333 55.5401 48.333 55.5401H57.2451V52.5093H55.6449V53.9266H50.0423C50.0776 53.3996 50.3181 52.4546 50.7735 51.9661C50.9787 51.7443 51.2417 51.6415 51.5945 51.6415Z" fill="white"/>
<path d="M120.207 49.7838V52.5382H123.542V53.242H120.207V56.5493H119.453V49.0799H123.702V49.7838H120.207Z" fill="#525252"/>
<path d="M124.886 52.8147C124.886 50.6806 126.586 48.9514 128.779 48.9514C130.973 48.9514 132.673 50.6806 132.673 52.8147C132.673 54.9488 130.973 56.6779 128.779 56.6779C126.586 56.6779 124.886 54.9488 124.886 52.8147ZM131.919 52.8147C131.919 51.0759 130.563 49.6778 128.779 49.6778C126.996 49.6778 125.64 51.0759 125.64 52.8147C125.64 54.5534 126.996 55.9515 128.779 55.9515C130.563 55.9515 131.919 54.5534 131.919 52.8147Z" fill="#525252"/>
<path d="M137.146 53.5603H135.039V56.5493H134.285V49.08H137.296C138.544 49.08 139.554 50.0827 139.554 51.3201C139.554 52.3325 138.865 53.1971 137.931 53.4639L139.769 56.5493H138.91L137.146 53.5603ZM135.036 52.8564H137.293C138.121 52.8564 138.797 52.1622 138.797 51.3201C138.797 50.4652 138.121 49.7838 137.293 49.7838H135.036V52.8564Z" fill="#525252"/>
<path d="M148.049 56.5493H147.296V50.2113L144.66 54.5888H144.551L141.915 50.2113V56.5525H141.161V49.08H142.097L144.602 53.2421L147.107 49.08H148.043V56.5493H148.049Z" fill="#525252"/>
<path d="M149.557 54.8524L150.201 54.4795C150.471 55.3762 151.179 55.9515 152.363 55.9515C153.501 55.9515 154.136 55.4084 154.136 54.6081C154.136 53.7435 153.395 53.4671 152.286 53.1039C151.061 52.699 149.877 52.3776 149.877 51.002C149.877 49.6906 150.942 48.9514 152.19 48.9514C153.427 48.9514 154.287 49.6778 154.675 50.5616L154.04 50.9152C153.761 50.2435 153.18 49.6778 152.19 49.6778C151.285 49.6778 150.631 50.147 150.631 50.9698C150.631 51.7798 151.276 52.0369 152.299 52.3679C153.665 52.8147 154.89 53.2003 154.89 54.5888C154.89 55.868 153.857 56.6811 152.353 56.6811C150.964 56.6779 149.941 55.9837 149.557 54.8524Z" fill="#525252"/>
</g>
<defs>
<clipPath id="clip0_1626_3057">
<rect width="108.526" height="13.9842" fill="white" transform="translate(46.4736 45.8241)"/>
</clipPath>
</defs>
</svg>
