<svg width="224" height="39" viewBox="0 0 224 39" fill="none" xmlns="http://www.w3.org/2000/svg">
<path d="M36.2002 8.61199C38.243 11.1825 39.513 14.2645 39.8852 17.5H38.6662C38.2999 14.5388 37.125 11.7211 35.2526 9.36507C32.9625 6.48338 29.7639 4.46227 26.178 3.63112C22.5922 2.79997 18.8306 3.20779 15.5062 4.7881C13.789 5.60441 12.0393 6.93826 10.5479 8.41539C9.70203 9.2531 8.90189 10.1739 8.2153 11.1251L7.50032 10.4853C9.26779 7.5443 11.8678 5.17749 14.9866 3.69493C18.558 1.99719 22.5991 1.55908 26.4513 2.45198C30.3036 3.34489 33.7399 5.51618 36.2002 8.61199Z" stroke="#4169E1" stroke-width="4"/>
<path d="M8.5694 30.0919C6.65986 27.5804 5.4724 24.61 5.11464 21.5H6.13715C6.49006 24.3874 7.60271 27.1429 9.37769 29.4773C11.559 32.3462 14.6203 34.4211 18.093 35.3846C21.5657 36.3481 25.2585 36.1469 28.606 34.812C30.3524 34.1156 32.1489 32.8985 33.6988 31.5408C34.5551 30.7906 35.3731 29.9651 36.0936 29.1112L36.683 29.7516C34.7437 32.4346 32.076 34.5215 28.9822 35.7552C25.4284 37.1723 21.5082 37.3859 17.8215 36.363C14.1349 35.3402 10.885 33.1374 8.5694 30.0919Z" stroke="#4169E1" stroke-width="4"/>
<path d="M33.0578 19.0665L38.9976 26L45 19H41.2131H37.0273H33L33.0578 19.0665Z" fill="#4169E1"/>
<path d="M11.9422 21.9335L6.00243 15L0 22L3.78693 22L7.97269 22L12 22L11.9422 21.9335Z" fill="#4169E1"/>
<path d="M78.8828 12.6953L74.5352 29.5H70.2461L67.457 18.9297C67.3867 18.6719 67.332 18.457 67.293 18.2852C67.2617 18.1055 67.2227 17.8789 67.1758 17.6055H67.1289C67.082 17.8789 67.0352 18.1094 66.9883 18.2969C66.9492 18.4766 66.8984 18.6875 66.8359 18.9297L63.9766 29.5H59.5117L55.1875 12.6953H59.2656L61.6914 23.6992C61.7383 23.9258 61.7773 24.1211 61.8086 24.2852C61.8398 24.4414 61.8828 24.6953 61.9375 25.0469H62.0078C62.0703 24.6953 62.1172 24.4492 62.1484 24.3086C62.1797 24.168 62.2383 23.9492 62.3242 23.6523L65.3711 12.6953H69.4258L72.1797 23.793C72.2344 24.0195 72.2773 24.207 72.3086 24.3555C72.3398 24.4961 72.3867 24.7188 72.4492 25.0234H72.4961C72.5508 24.7031 72.5898 24.4766 72.6133 24.3438C72.6367 24.2031 72.6797 23.9961 72.7422 23.7227L75.1094 12.6953H78.8828ZM84.6602 24.0273V29.5H80.875V12.6953H86.7227C88.8164 12.6953 90.4102 13.1523 91.5039 14.0664C92.6055 14.9805 93.1562 16.332 93.1562 18.1211C93.1562 19.9805 92.5391 21.4297 91.3047 22.4688C90.0781 23.5078 88.4297 24.0273 86.3594 24.0273H84.6602ZM84.6602 15.6016V21.1211H86.2422C87.1797 21.1211 87.9023 20.875 88.4102 20.3828C88.918 19.8906 89.1719 19.1836 89.1719 18.2617C89.1719 17.4102 88.9219 16.7539 88.4219 16.293C87.9297 15.832 87.2227 15.6016 86.3008 15.6016H84.6602ZM94.5391 26.207L97.7266 24.543C98.0859 25.2695 98.5547 25.8047 99.1328 26.1484C99.7188 26.4922 100.359 26.6641 101.055 26.6641C101.906 26.6641 102.539 26.5039 102.953 26.1836C103.367 25.8555 103.574 25.4062 103.574 24.8359C103.574 24.25 103.348 23.7891 102.895 23.4531C102.449 23.1172 101.742 22.8594 100.773 22.6797C98.9141 22.3203 97.5469 21.7461 96.6719 20.957C95.8047 20.1602 95.3711 19.0625 95.3711 17.6641C95.3711 16.0703 95.9336 14.7969 97.0586 13.8438C98.1836 12.8906 99.668 12.4141 101.512 12.4141C102.77 12.4141 103.871 12.668 104.816 13.1758C105.762 13.6836 106.504 14.4102 107.043 15.3555L103.926 16.9609C103.613 16.4297 103.258 16.0469 102.859 15.8125C102.461 15.5703 101.945 15.4492 101.312 15.4492C100.578 15.4492 100.012 15.6094 99.6133 15.9297C99.2227 16.25 99.0273 16.6523 99.0273 17.1367C99.0273 17.6289 99.2227 18.0273 99.6133 18.332C100.004 18.6289 100.734 18.8711 101.805 19.0586C103.586 19.3789 104.93 19.9727 105.836 20.8398C106.75 21.6992 107.207 22.8672 107.207 24.3438C107.207 26.0156 106.672 27.3438 105.602 28.3281C104.531 29.3047 103.004 29.793 101.02 29.793C99.582 29.793 98.2852 29.4805 97.1289 28.8555C95.9805 28.2227 95.1172 27.3398 94.5391 26.207ZM120.637 17.5L115.457 31.2695C114.988 32.5117 114.355 33.4648 113.559 34.1289C112.77 34.8008 111.766 35.1367 110.547 35.1367C109.977 35.1367 109.422 35.0664 108.883 34.9258C108.344 34.793 107.852 34.5742 107.406 34.2695L109.105 31.8789C109.363 32.0586 109.57 32.1758 109.727 32.2305C109.891 32.2852 110.059 32.3125 110.23 32.3125C110.582 32.3125 110.871 32.2305 111.098 32.0664C111.332 31.9102 111.527 31.6602 111.684 31.3164L112.34 29.8516L107.605 17.5H111.613L113.887 24.6133C113.973 24.8789 114.043 25.1367 114.098 25.3867C114.152 25.6289 114.211 25.9062 114.273 26.2188H114.32C114.383 25.9141 114.449 25.6484 114.52 25.4219C114.59 25.1875 114.668 24.9258 114.754 24.6367L116.863 17.5H120.637ZM133.867 29.5H130.176V22.6094C130.176 21.8438 130.012 21.2344 129.684 20.7812C129.355 20.3203 128.867 20.0898 128.219 20.0898C127.57 20.0898 127.035 20.332 126.613 20.8164C126.191 21.3008 125.98 21.9141 125.98 22.6562V29.5H122.277V17.5H125.98V19.0234H126.027C126.418 18.4766 126.961 18.0391 127.656 17.7109C128.352 17.375 129.051 17.207 129.754 17.207C131.105 17.207 132.129 17.6289 132.824 18.4727C133.52 19.3164 133.867 20.5078 133.867 22.0469V29.5ZM147.367 26.7227C146.828 27.7305 146.094 28.4961 145.164 29.0195C144.242 29.5352 143.184 29.793 141.988 29.793C140.066 29.793 138.562 29.2422 137.477 28.1406C136.398 27.0312 135.859 25.582 135.859 23.793C135.859 21.7539 136.457 20.1484 137.652 18.9766C138.848 17.8047 140.402 17.2188 142.316 17.2188C143.496 17.2188 144.535 17.4961 145.434 18.0508C146.332 18.5977 146.938 19.3984 147.25 20.4531L144.25 21.5664C144.016 21.0586 143.73 20.6875 143.395 20.4531C143.066 20.2109 142.66 20.0898 142.176 20.0898C141.449 20.0898 140.84 20.3711 140.348 20.9336C139.863 21.4883 139.621 22.3594 139.621 23.5469C139.621 24.6719 139.852 25.4961 140.312 26.0195C140.773 26.543 141.359 26.8047 142.07 26.8047C142.609 26.8047 143.062 26.6914 143.43 26.4648C143.805 26.2305 144.148 25.8594 144.461 25.3516L147.367 26.7227ZM149.078 26.207L152.266 24.543C152.625 25.2695 153.094 25.8047 153.672 26.1484C154.258 26.4922 154.898 26.6641 155.594 26.6641C156.445 26.6641 157.078 26.5039 157.492 26.1836C157.906 25.8555 158.113 25.4062 158.113 24.8359C158.113 24.25 157.887 23.7891 157.434 23.4531C156.988 23.1172 156.281 22.8594 155.312 22.6797C153.453 22.3203 152.086 21.7461 151.211 20.957C150.344 20.1602 149.91 19.0625 149.91 17.6641C149.91 16.0703 150.473 14.7969 151.598 13.8438C152.723 12.8906 154.207 12.4141 156.051 12.4141C157.309 12.4141 158.41 12.668 159.355 13.1758C160.301 13.6836 161.043 14.4102 161.582 15.3555L158.465 16.9609C158.152 16.4297 157.797 16.0469 157.398 15.8125C157 15.5703 156.484 15.4492 155.852 15.4492C155.117 15.4492 154.551 15.6094 154.152 15.9297C153.762 16.25 153.566 16.6523 153.566 17.1367C153.566 17.6289 153.762 18.0273 154.152 18.332C154.543 18.6289 155.273 18.8711 156.344 19.0586C158.125 19.3789 159.469 19.9727 160.375 20.8398C161.289 21.6992 161.746 22.8672 161.746 24.3438C161.746 26.0156 161.211 27.3438 160.141 28.3281C159.07 29.3047 157.543 29.793 155.559 29.793C154.121 29.793 152.824 29.4805 151.668 28.8555C150.52 28.2227 149.656 27.3398 149.078 26.207ZM175.445 29.5H171.754V22.5859C171.754 21.7812 171.586 21.1641 171.25 20.7344C170.922 20.3047 170.449 20.0898 169.832 20.0898C169.176 20.0898 168.645 20.332 168.238 20.8164C167.832 21.3008 167.629 21.9141 167.629 22.6562V29.5H163.926V11.7344H167.629V19H167.676C168.059 18.4766 168.598 18.0469 169.293 17.7109C169.988 17.375 170.68 17.207 171.367 17.207C172.648 17.207 173.648 17.6094 174.367 18.4141C175.086 19.2188 175.445 20.4258 175.445 22.0352V29.5ZM188.934 24.5547H181.105C181.16 25.3281 181.426 25.9453 181.902 26.4062C182.387 26.8594 183.02 27.0859 183.801 27.0859C184.277 27.0859 184.711 26.9688 185.102 26.7344C185.5 26.5 185.855 26.1484 186.168 25.6797L188.887 27.2266C188.199 28.1172 187.43 28.7695 186.578 29.1836C185.727 29.5898 184.781 29.793 183.742 29.793C181.758 29.793 180.211 29.2578 179.102 28.1875C177.992 27.1094 177.438 25.6094 177.438 23.6875C177.438 21.6953 178.016 20.1172 179.172 18.9531C180.328 17.7891 181.75 17.207 183.438 17.207C185.188 17.207 186.539 17.7266 187.492 18.7656C188.453 19.8047 188.934 21.3672 188.934 23.4531V24.5547ZM185.5 22.2109C185.5 21.3906 185.324 20.7773 184.973 20.3711C184.629 19.957 184.164 19.75 183.578 19.75C182.875 19.75 182.305 19.9844 181.867 20.4531C181.438 20.9219 181.176 21.5078 181.082 22.2109H185.5ZM201.988 24.5547H194.16C194.215 25.3281 194.48 25.9453 194.957 26.4062C195.441 26.8594 196.074 27.0859 196.855 27.0859C197.332 27.0859 197.766 26.9688 198.156 26.7344C198.555 26.5 198.91 26.1484 199.223 25.6797L201.941 27.2266C201.254 28.1172 200.484 28.7695 199.633 29.1836C198.781 29.5898 197.836 29.793 196.797 29.793C194.812 29.793 193.266 29.2578 192.156 28.1875C191.047 27.1094 190.492 25.6094 190.492 23.6875C190.492 21.6953 191.07 20.1172 192.227 18.9531C193.383 17.7891 194.805 17.207 196.492 17.207C198.242 17.207 199.594 17.7266 200.547 18.7656C201.508 19.8047 201.988 21.3672 201.988 23.4531V24.5547ZM198.555 22.2109C198.555 21.3906 198.379 20.7773 198.027 20.3711C197.684 19.957 197.219 19.75 196.633 19.75C195.93 19.75 195.359 19.9844 194.922 20.4531C194.492 20.9219 194.23 21.5078 194.137 22.2109H198.555ZM212.301 28.6445C211.934 28.9805 211.48 29.2578 210.941 29.4766C210.402 29.6875 209.816 29.793 209.184 29.793C207.809 29.793 206.789 29.4766 206.125 28.8438C205.461 28.2109 205.129 27.2656 205.129 26.0078V20.2305H203.184V17.5H205.129V14.4414L208.82 13.7852V17.5H211.703V20.2305H208.82V25.9844C208.82 26.3516 208.898 26.6289 209.055 26.8164C209.219 27.0039 209.445 27.0977 209.734 27.0977C209.906 27.0977 210.078 27.0703 210.25 27.0156C210.43 26.9531 210.617 26.832 210.812 26.6523L212.301 28.6445ZM213.367 27.9648L215.113 25.7148C215.723 26.2852 216.285 26.6758 216.801 26.8867C217.316 27.0977 217.844 27.2031 218.383 27.2031C218.922 27.2031 219.332 27.1133 219.613 26.9336C219.902 26.7461 220.047 26.4727 220.047 26.1133C220.047 25.8398 219.91 25.6094 219.637 25.4219C219.363 25.2344 218.922 25.1016 218.312 25.0234C216.719 24.7891 215.582 24.3516 214.902 23.7109C214.223 23.0703 213.883 22.2344 213.883 21.2031C213.883 20.0703 214.297 19.1211 215.125 18.3555C215.961 17.5898 217.09 17.207 218.512 17.207C219.355 17.207 220.152 17.3242 220.902 17.5586C221.652 17.793 222.293 18.1484 222.824 18.625L221.031 20.7695C220.57 20.4258 220.137 20.1758 219.73 20.0195C219.332 19.8555 218.914 19.7734 218.477 19.7734C217.984 19.7734 217.625 19.8633 217.398 20.043C217.18 20.2148 217.07 20.4609 217.07 20.7812C217.07 21.0547 217.211 21.2852 217.492 21.4727C217.773 21.6602 218.27 21.793 218.98 21.8711C220.387 22.0352 221.453 22.4336 222.18 23.0664C222.914 23.6914 223.281 24.582 223.281 25.7383C223.281 26.9727 222.812 27.957 221.875 28.6914C220.945 29.4258 219.762 29.793 218.324 29.793C217.348 29.793 216.426 29.6406 215.559 29.3359C214.691 29.0312 213.961 28.5742 213.367 27.9648Z" fill="#1F2434"/>
</svg>
