<svg width="199" height="174" viewBox="0 0 199 174" fill="none" xmlns="http://www.w3.org/2000/svg">
<path fill-rule="evenodd" clip-rule="evenodd" d="M178.991 103.633L159.191 77.8006L158.998 77.5526H172.423C172.23 76.0907 171.995 74.6428 171.716 73.2075C165.205 39.4173 135.318 13.7913 99.499 13.7913C67.9769 13.7913 41.0269 33.6393 30.5798 61.4318L20.9505 48.8647C35.181 19.9585 65.0393 0 99.499 0C142.979 0 179.144 31.7652 185.795 73.2075C186.017 74.6428 186.224 76.0907 186.376 77.5526H199L178.991 103.633ZM40.002 96.4456H26.5751C26.7695 97.9089 27.0058 99.3595 27.282 100.791C33.7945 134.581 63.682 160.206 99.499 160.206C131.021 160.206 157.971 140.362 168.419 112.572L178.05 125.134C163.818 154.044 133.958 174 99.499 174C56.0197 174 19.8559 142.237 13.2055 100.791C12.9832 99.3595 12.7745 97.9089 12.6225 96.4456H0L20.0073 70.3688L39.8071 96.199L40.002 96.4456Z" fill="#4169E1"/>
<path d="M115.857 118.783C115.857 119.472 115.579 120.133 115.086 120.62C114.592 121.107 113.923 121.381 113.225 121.381H85.1423C84.4445 121.381 83.7751 121.108 83.2813 120.621C82.7874 120.134 82.5094 119.474 82.5083 118.785V78.204C82.508 77.8624 82.576 77.5241 82.7082 77.2085C82.8405 76.8928 83.0345 76.6061 83.2792 76.3645C83.5238 76.123 83.8143 75.9314 84.134 75.8009C84.4537 75.6703 84.7964 75.6032 85.1423 75.6035H103.165L115.857 88.3824V118.783Z" fill="#23A566"/>
<path d="M104.563 88.0494L115.858 98.7082V88.3082H105.853C105.416 88.3131 104.985 88.2061 104.603 87.9977L104.563 88.0494Z" fill="#1C8F5A"/>
<path d="M115.856 88.3614H105.823C105.125 88.3609 104.456 88.0869 103.963 87.5997C103.469 87.1126 103.192 86.452 103.191 85.763V75.5328L115.856 88.3614Z" fill="#8ED1B1"/>
<path fill-rule="evenodd" clip-rule="evenodd" d="M107.829 112.943H90.4751V98.087H107.829V112.943ZM100.231 100.23V102.83H105.696V100.234L100.231 100.23ZM100.231 104.468V106.953H105.696V104.456L100.231 104.468ZM100.231 108.537V110.837H105.696V108.524L100.231 108.537ZM98.0857 110.824V108.524H92.6226V110.824H98.0857ZM98.0857 106.926V104.456H92.6226V106.938L98.0857 106.926ZM98.0857 102.857V100.23H92.6226V102.83L98.0857 102.857Z" fill="white"/>
<path d="M75.3597 132.143C75.3597 130.952 74.4513 130.139 73.3967 130.139C72.342 130.139 71.4328 130.952 71.4328 132.143C71.4328 133.321 72.342 134.146 73.3967 134.146C74.4513 134.146 75.3597 133.319 75.3597 132.143ZM76.8885 132.143C76.8885 134.047 75.3207 135.45 73.3959 135.45C71.4719 135.45 69.904 134.047 69.904 132.143C69.904 130.225 71.4719 128.835 73.3967 128.835C75.3207 128.835 76.8885 130.225 76.8885 132.143ZM82.8927 132.143C82.8927 130.952 81.9843 130.139 80.9296 130.139C79.8749 130.139 78.9665 130.952 78.9665 132.143C78.9665 133.321 79.8749 134.146 80.9296 134.146C81.9843 134.146 82.8927 133.319 82.8927 132.143ZM84.4215 132.143C84.4215 134.047 82.8536 135.45 80.9296 135.45C79.0056 135.45 77.4369 134.047 77.4369 132.143C77.4369 130.226 79.0056 128.835 80.9296 128.835C82.8536 128.835 84.4215 130.225 84.4215 132.143ZM90.2984 132.154C90.2984 130.989 89.4804 130.138 88.4403 130.138C87.3848 130.138 86.5017 130.989 86.5017 132.154C86.5017 133.307 87.3848 134.146 88.4395 134.146C89.4804 134.146 90.2984 133.306 90.2984 132.154ZM91.6419 129.035V134.973C91.6419 137.415 90.1253 138.414 88.3331 138.414C87.6816 138.424 87.0415 138.245 86.4928 137.898C85.9441 137.551 85.5111 137.053 85.2479 136.464L86.5783 135.938C86.8157 136.476 87.3963 137.111 88.3323 137.111C89.4789 137.111 90.1897 136.438 90.1897 135.173V134.696H90.1361C89.7945 135.098 89.135 135.449 88.3032 135.449C86.563 135.449 84.9683 134.008 84.9683 132.155C84.9683 130.287 86.563 128.835 88.3032 128.835C89.1334 128.835 89.7929 129.185 90.1368 129.575H90.1904V129.036H91.6419V129.035ZM94.0354 125.552H92.5441V135.247H94.0346L94.0354 125.552ZM96.193 132.04L99.3042 130.812C99.1334 130.399 98.618 130.111 98.0129 130.111C97.2355 130.111 96.154 130.763 96.193 132.04ZM99.8457 133.229L101.032 133.981C100.706 134.439 100.271 134.813 99.7656 135.068C99.2602 135.324 98.6993 135.454 98.1316 135.447C96.154 135.447 94.6773 133.995 94.6773 132.14C94.6773 130.173 96.167 128.832 97.9608 128.832C99.7669 128.832 100.651 130.198 100.94 130.936L101.098 131.312L96.4443 133.143C96.8004 133.807 97.3549 134.145 98.1316 134.145C98.9105 134.145 99.4498 133.781 99.8457 133.229ZM64.2599 131.281V129.877H69.2369C69.2851 130.121 69.3104 130.411 69.3104 130.724C69.3104 131.777 69.0079 133.079 68.0313 134.006C67.0816 134.946 65.8683 135.447 64.2614 135.447C61.2819 135.447 58.7773 133.141 58.7773 130.311C58.7773 127.481 61.2819 125.175 64.2614 125.175C65.9097 125.175 67.0831 125.789 67.9654 126.59L66.9238 127.581C66.2911 127.016 65.434 126.579 64.2599 126.579C62.0846 126.579 60.3835 128.244 60.3835 130.311C60.3835 132.378 62.0846 134.044 64.2599 134.044C65.6707 134.044 66.4742 133.505 66.9889 133.016C67.4071 132.619 67.6813 132.053 67.79 131.279L64.2599 131.281ZM110.046 133.21C110.046 133.976 109.761 134.592 109.192 135.056C108.613 135.513 107.913 135.741 107.087 135.741C106.352 135.741 105.704 135.529 105.143 135.105C104.581 134.682 104.193 134.103 103.979 133.369L105.069 132.93C105.143 133.19 105.246 133.427 105.378 133.638C105.51 133.85 105.663 134.034 105.836 134.189C106.018 134.335 106.216 134.453 106.43 134.543C106.645 134.624 106.872 134.665 107.111 134.665C107.631 134.665 108.057 134.535 108.387 134.274C108.717 134.005 108.882 133.65 108.882 133.21C108.882 132.844 108.746 132.53 108.473 132.27C108.217 132.017 107.739 131.772 107.037 131.536C106.327 131.284 105.886 131.113 105.712 131.022C104.771 130.55 104.3 129.853 104.3 128.932C104.3 128.288 104.561 127.739 105.081 127.282C105.609 126.826 106.257 126.597 107.025 126.597C107.702 126.597 108.288 126.768 108.783 127.111C109.278 127.445 109.608 127.865 109.774 128.37L108.709 128.81C108.609 128.482 108.399 128.198 108.114 128.003C107.825 127.783 107.471 127.673 107.049 127.673C106.604 127.673 106.228 127.795 105.923 128.04C105.617 128.268 105.464 128.565 105.464 128.932C105.464 129.234 105.584 129.494 105.824 129.714C106.088 129.934 106.662 130.195 107.545 130.497C108.444 130.798 109.084 131.169 109.464 131.609C109.852 132.041 110.046 132.575 110.046 133.21ZM111.219 126.793H112.358V129.556L112.308 130.387H112.358C112.531 130.093 112.795 129.849 113.151 129.654C113.495 129.463 113.883 129.362 114.277 129.36C115.02 129.36 115.589 129.572 115.985 129.995C116.39 130.411 116.592 131.006 116.592 131.78V135.545H115.453V132C115.453 130.924 114.971 130.387 114.005 130.387C113.542 130.387 113.151 130.578 112.828 130.961C112.516 131.332 112.349 131.8 112.358 132.282V135.545H111.219V126.793ZM120.654 135.741C119.762 135.741 119.028 135.439 118.449 134.836C117.872 134.233 117.583 133.471 117.583 132.55C117.583 131.637 117.863 130.88 118.425 130.277C118.986 129.665 119.704 129.36 120.579 129.36C121.479 129.36 122.193 129.649 122.721 130.228C123.258 130.798 123.526 131.601 123.526 132.636L123.514 132.758H118.747C118.763 133.345 118.961 133.817 119.341 134.176C119.721 134.534 120.175 134.714 120.703 134.714C121.43 134.714 121.999 134.356 122.412 133.638L123.427 134.128C123.167 134.62 122.772 135.03 122.288 135.313C121.809 135.598 121.264 135.741 120.654 135.741ZM118.833 131.829H122.313C122.301 131.633 122.249 131.44 122.159 131.264C122.07 131.087 121.945 130.93 121.793 130.803C121.487 130.525 121.074 130.387 120.554 130.387C120.125 130.387 119.754 130.517 119.44 130.778C119.135 131.039 118.933 131.39 118.833 131.829ZM127.353 135.741C126.461 135.741 125.726 135.439 125.148 134.836C124.571 134.233 124.281 133.471 124.281 132.55C124.281 131.637 124.562 130.88 125.124 130.277C125.685 129.665 126.403 129.36 127.278 129.36C128.178 129.36 128.891 129.649 129.42 130.228C129.957 130.798 130.225 131.601 130.225 132.636L130.213 132.758H125.445C125.462 133.345 125.66 133.817 126.04 134.176C126.42 134.534 126.873 134.714 127.402 134.714C128.128 134.714 128.698 134.356 129.11 133.638L130.126 134.128C129.866 134.62 129.471 135.031 128.986 135.313C128.508 135.598 127.963 135.741 127.353 135.741ZM125.532 131.829H129.012C129 131.633 128.947 131.44 128.858 131.264C128.769 131.087 128.644 130.93 128.492 130.803C128.186 130.525 127.773 130.387 127.253 130.387C126.824 130.387 126.453 130.517 126.139 130.778C125.834 131.039 125.631 131.39 125.532 131.829ZM133.487 135.643C132.992 135.643 132.579 135.492 132.249 135.191C131.927 134.889 131.762 134.469 131.754 133.932V130.582H130.689V129.556H131.754V127.722H132.893V129.556H134.378V130.583H132.893V133.565C132.893 133.964 132.971 134.238 133.128 134.384C133.285 134.522 133.462 134.592 133.661 134.592C133.751 134.592 133.838 134.584 133.92 134.568C134.012 134.543 134.094 134.515 134.168 134.482L134.527 135.484C134.23 135.59 133.884 135.643 133.487 135.643ZM140.226 133.883C140.226 134.404 139.995 134.844 139.533 135.203C139.071 135.561 138.488 135.741 137.787 135.741C137.176 135.741 136.639 135.586 136.178 135.276C135.725 134.971 135.379 134.536 135.187 134.029L136.202 133.602C136.351 133.96 136.565 134.242 136.846 134.445C137.135 134.641 137.448 134.739 137.787 134.739C138.151 134.739 138.452 134.661 138.691 134.506C138.939 134.351 139.062 134.168 139.062 133.956C139.062 133.573 138.765 133.292 138.171 133.113L137.131 132.856C135.95 132.563 135.36 132 135.36 131.169C135.36 130.623 135.583 130.187 136.029 129.861C136.483 129.527 137.061 129.36 137.762 129.36C138.299 129.36 138.782 129.486 139.211 129.739C139.649 129.991 139.954 130.33 140.128 130.753L139.112 131.169C138.995 130.915 138.794 130.708 138.542 130.583C138.279 130.434 137.979 130.358 137.676 130.363C137.379 130.363 137.111 130.436 136.871 130.582C136.639 130.729 136.524 130.908 136.524 131.12C136.524 131.463 136.85 131.707 137.503 131.854L138.419 132.086C139.624 132.379 140.226 132.978 140.226 133.883Z" fill="#787879"/>
<mask id="mask0_1630_3788" style="mask-type:luminance" maskUnits="userSpaceOnUse" x="67" y="39" width="67" height="18">
<path d="M133.763 39.3899H67.0425V56.6889H133.763V39.3899Z" fill="white"/>
</mask>
<g mask="url(#mask0_1630_3788)">
<path fill-rule="evenodd" clip-rule="evenodd" d="M95.1697 39.3899C93.6066 39.3899 92.5895 39.8998 91.6809 41.6115L87.5383 49.4416V42.4855C87.5383 40.4096 86.5569 39.3899 84.7397 39.3899C82.9231 39.3899 82.1601 40.009 81.2515 41.7571L77.3266 49.4416V42.5583C77.3266 40.3368 76.4181 39.3899 74.2012 39.3899H69.6952C67.9873 39.3899 67.0425 40.1911 67.0425 41.6479C67.0425 43.1046 67.9509 43.9787 69.6224 43.9787H71.476V52.7556C71.476 55.2322 73.1476 56.6889 75.5459 56.6889C77.9447 56.6889 79.0346 55.742 80.2338 53.5204L82.8504 48.6039V52.7556C82.8504 55.1958 84.4492 56.6889 86.8838 56.6889C89.3191 56.6889 90.227 55.8513 91.6081 53.5204L97.6407 43.3231C98.949 41.1016 98.0404 39.3899 95.1333 39.3899C95.1333 39.3899 95.1333 39.3899 95.1697 39.3899Z" fill="#873EFF"/>
<path fill-rule="evenodd" clip-rule="evenodd" d="M106.506 39.3899C101.564 39.3899 97.8213 43.0682 97.8213 48.0576C97.8213 53.047 101.601 56.6889 106.506 56.6889C111.412 56.6889 115.155 53.0106 115.191 48.0576C115.191 43.0682 111.412 39.3899 106.506 39.3899ZM106.506 51.3717C104.653 51.3717 103.381 49.9878 103.381 48.0576C103.381 46.1274 104.653 44.707 106.506 44.707C108.36 44.707 109.632 46.1274 109.632 48.0576C109.632 49.9878 108.396 51.3717 106.506 51.3717Z" fill="#873EFF"/>
<path fill-rule="evenodd" clip-rule="evenodd" d="M125.078 39.3899C120.172 39.3899 116.393 43.0682 116.393 48.0576C116.393 53.047 120.172 56.6889 125.078 56.6889C129.984 56.6889 133.763 53.0106 133.763 48.0576C133.763 43.1046 129.984 39.3899 125.078 39.3899ZM125.078 51.3717C123.188 51.3717 121.989 49.9878 121.989 48.0576C121.989 46.1274 123.225 44.707 125.078 44.707C126.931 44.707 128.203 46.1274 128.203 48.0576C128.203 49.9878 126.968 51.3717 125.078 51.3717Z" fill="#873EFF"/>
</g>
</svg>
