<svg width="199" height="174" viewBox="0 0 199 174" fill="none" xmlns="http://www.w3.org/2000/svg">
<path fill-rule="evenodd" clip-rule="evenodd" d="M178.991 103.633L159.191 77.8007L158.998 77.553H172.423C172.23 76.091 171.994 74.6426 171.716 73.2076C165.204 39.4172 135.318 13.7913 99.4992 13.7913C67.977 13.7913 41.0269 33.6393 30.5798 61.4318L20.9506 48.8647C35.181 19.9585 65.0392 0 99.4992 0C142.979 0 179.144 31.7652 185.794 73.2076C186.017 74.6426 186.223 76.091 186.376 77.553H199L178.991 103.633ZM40.002 96.4458H26.5751C26.7694 97.909 27.0058 99.3595 27.282 100.791C33.7945 134.582 63.682 160.206 99.4992 160.206C131.021 160.206 157.972 140.362 168.419 112.572L178.049 125.134C163.818 154.044 133.958 174 99.4992 174C56.0197 174 19.8559 142.237 13.2055 100.791C12.9831 99.3595 12.7745 97.909 12.6225 96.4458H0L20.0072 70.3688L39.807 96.1993L40.002 96.4458Z" fill="#4169E1"/>
<path d="M115.409 118.493C115.408 119.174 115.139 119.826 114.659 120.307C114.179 120.788 113.528 121.058 112.849 121.059H85.5328C84.854 121.059 84.2029 120.789 83.7226 120.308C83.2422 119.828 82.9718 119.176 82.9707 118.496V78.4343C82.9704 78.0971 83.0365 77.7632 83.1652 77.4516C83.2938 77.14 83.4826 76.8569 83.7205 76.6184C83.9585 76.38 84.241 76.1909 84.552 76.062C84.863 75.9331 85.1963 75.8669 85.5328 75.8671H103.064L115.409 88.4823V118.493Z" fill="#23A566"/>
<path d="M104.423 88.1535L115.41 98.6757V88.409H105.678C105.253 88.4138 104.834 88.3082 104.462 88.1024L104.423 88.1535Z" fill="#1C8F5A"/>
<path d="M115.408 88.4623H105.649C104.97 88.4618 104.32 88.1913 103.84 87.7104C103.36 87.2295 103.09 86.5773 103.089 85.8972V75.7981L115.408 88.4623Z" fill="#8ED1B1"/>
<path fill-rule="evenodd" clip-rule="evenodd" d="M107.599 112.729H90.7192V98.0634H107.599V112.729ZM100.209 100.179V102.746H105.525V100.183L100.209 100.179ZM100.209 104.363V106.815H105.525V104.351L100.209 104.363ZM100.209 108.379V110.65H105.525V108.367L100.209 108.379ZM98.122 110.638V108.367H92.8081V110.638H98.122ZM98.122 106.789V104.351H92.8081V106.801L98.122 106.789ZM98.122 102.773V100.179H92.8081V102.746L98.122 102.773Z" fill="white"/>
<path d="M76.0167 131.684C76.0167 130.509 75.1331 129.706 74.1073 129.706C73.0814 129.706 72.197 130.509 72.197 131.684C72.197 132.847 73.0814 133.662 74.1073 133.662C75.1331 133.662 76.0167 132.846 76.0167 131.684ZM77.5038 131.684C77.5038 133.564 75.9787 134.949 74.1065 134.949C72.235 134.949 70.71 133.564 70.71 131.684C70.71 129.791 72.235 128.419 74.1073 128.419C75.9787 128.419 77.5038 129.791 77.5038 131.684ZM83.3439 131.684C83.3439 130.509 82.4603 129.706 81.4345 129.706C80.4086 129.706 79.525 130.509 79.525 131.684C79.525 132.847 80.4086 133.662 81.4345 133.662C82.4603 133.662 83.3439 132.846 83.3439 131.684ZM84.831 131.684C84.831 133.564 83.3059 134.949 81.4345 134.949C79.563 134.949 78.0372 133.564 78.0372 131.684C78.0372 129.792 79.563 128.419 81.4345 128.419C83.3059 128.419 84.831 129.791 84.831 131.684ZM90.5474 131.695C90.5474 130.546 89.7518 129.705 88.74 129.705C87.7134 129.705 86.8544 130.546 86.8544 131.695C86.8544 132.834 87.7134 133.662 88.7393 133.662C89.7518 133.662 90.5474 132.833 90.5474 131.695ZM91.8542 128.616V134.478C91.8542 136.889 90.3791 137.875 88.6357 137.875C88.0021 137.885 87.3795 137.708 86.8458 137.366C86.312 137.023 85.8908 136.531 85.6348 135.95L86.9289 135.431C87.1599 135.962 87.7246 136.589 88.635 136.589C89.7503 136.589 90.4417 135.925 90.4417 134.675V134.205H90.3895C90.0572 134.601 89.4158 134.948 88.6067 134.948C86.914 134.948 85.3629 133.526 85.3629 131.696C85.3629 129.852 86.914 128.419 88.6067 128.419C89.4143 128.419 90.0557 128.764 90.3902 129.149H90.4424V128.617H91.8542V128.616ZM94.1824 125.178H92.7318V134.748H94.1816L94.1824 125.178ZM96.2811 131.583L99.3073 130.371C99.1412 129.963 98.6398 129.679 98.0512 129.679C97.295 129.679 96.2431 130.322 96.2811 131.583ZM99.834 132.757L100.988 133.499C100.67 133.952 100.248 134.32 99.756 134.572C99.2644 134.824 98.7189 134.953 98.1667 134.946C96.2431 134.946 94.8067 133.513 94.8067 131.681C94.8067 129.739 96.2557 128.416 98.0005 128.416C99.7573 128.416 100.617 129.764 100.899 130.493L101.052 130.864L96.5254 132.672C96.8718 133.327 97.4112 133.661 98.1667 133.661C98.9244 133.661 99.4488 133.302 99.834 132.757ZM65.22 130.833V129.448H70.0611C70.108 129.689 70.1326 129.975 70.1326 130.284C70.1326 131.323 69.8383 132.608 68.8884 133.523C67.9646 134.451 66.7845 134.946 65.2215 134.946C62.3234 134.946 59.8872 132.669 59.8872 129.876C59.8872 127.083 62.3234 124.806 65.2215 124.806C66.8248 124.806 67.9661 125.412 68.8244 126.203L67.8112 127.18C67.1958 126.624 66.3621 126.191 65.22 126.191C63.1042 126.191 61.4495 127.835 61.4495 129.876C61.4495 131.917 63.1042 133.561 65.22 133.561C66.5923 133.561 67.3738 133.029 67.8745 132.546C68.2813 132.154 68.548 131.595 68.6538 130.832L65.22 130.833ZM109.755 132.738C109.755 133.494 109.478 134.102 108.925 134.56C108.362 135.011 107.68 135.237 106.877 135.237C106.162 135.237 105.533 135.028 104.987 134.609C104.44 134.191 104.063 133.619 103.854 132.895L104.914 132.461C104.987 132.718 105.086 132.952 105.215 133.161C105.343 133.37 105.492 133.551 105.661 133.704C105.837 133.849 106.03 133.965 106.239 134.053C106.447 134.134 106.668 134.174 106.901 134.174C107.407 134.174 107.821 134.046 108.142 133.788C108.463 133.523 108.624 133.173 108.624 132.738C108.624 132.376 108.491 132.066 108.226 131.809C107.977 131.56 107.511 131.318 106.829 131.085C106.138 130.836 105.709 130.667 105.54 130.578C104.625 130.112 104.167 129.424 104.167 128.514C104.167 127.879 104.42 127.336 104.926 126.886C105.44 126.435 106.071 126.21 106.817 126.21C107.476 126.21 108.046 126.379 108.527 126.717C109.009 127.047 109.33 127.461 109.491 127.96L108.455 128.394C108.358 128.071 108.154 127.79 107.876 127.598C107.596 127.38 107.251 127.272 106.841 127.272C106.407 127.272 106.042 127.392 105.746 127.634C105.448 127.859 105.299 128.152 105.299 128.514C105.299 128.813 105.416 129.07 105.649 129.287C105.906 129.504 106.464 129.762 107.323 130.06C108.198 130.357 108.82 130.723 109.189 131.157C109.567 131.584 109.755 132.111 109.755 132.738ZM110.897 126.403H112.005V129.13L111.956 129.951H112.005C112.173 129.661 112.43 129.42 112.776 129.227C113.11 129.039 113.488 128.939 113.872 128.937C114.593 128.937 115.148 129.146 115.533 129.564C115.926 129.975 116.123 130.562 116.123 131.326V135.043H115.015V131.544C115.015 130.481 114.546 129.951 113.606 129.951C113.156 129.951 112.776 130.14 112.462 130.518C112.159 130.883 111.996 131.346 112.005 131.821V135.043H110.897V126.403ZM120.074 135.237C119.207 135.237 118.492 134.938 117.93 134.343C117.368 133.748 117.087 132.996 117.087 132.086C117.087 131.185 117.36 130.437 117.906 129.842C118.452 129.239 119.15 128.937 120.001 128.937C120.876 128.937 121.571 129.223 122.085 129.794C122.607 130.357 122.868 131.15 122.868 132.171L122.856 132.292H118.219C118.235 132.871 118.427 133.338 118.797 133.691C119.166 134.045 119.608 134.223 120.121 134.223C120.828 134.223 121.382 133.869 121.784 133.161L122.771 133.644C122.518 134.13 122.135 134.535 121.664 134.814C121.197 135.095 120.668 135.237 120.074 135.237ZM118.303 131.375H121.687C121.676 131.181 121.625 130.99 121.538 130.816C121.451 130.642 121.33 130.487 121.182 130.361C120.884 130.087 120.483 129.951 119.977 129.951C119.56 129.951 119.198 130.079 118.893 130.337C118.596 130.594 118.4 130.941 118.303 131.375ZM126.59 135.237C125.722 135.237 125.007 134.938 124.446 134.343C123.884 133.748 123.602 132.996 123.602 132.086C123.602 131.185 123.876 130.437 124.422 129.842C124.968 129.239 125.666 128.937 126.517 128.937C127.392 128.937 128.086 129.223 128.6 129.794C129.123 130.357 129.383 131.15 129.383 132.171L129.372 132.292H124.735C124.751 132.871 124.943 133.338 125.313 133.691C125.682 134.045 126.123 134.223 126.637 134.223C127.344 134.223 127.898 133.869 128.299 133.161L129.287 133.644C129.034 134.13 128.65 134.535 128.179 134.814C127.713 135.095 127.183 135.237 126.59 135.237ZM124.819 131.375H128.203C128.192 131.181 128.141 130.99 128.054 130.816C127.967 130.642 127.846 130.487 127.697 130.361C127.4 130.087 126.999 129.951 126.493 129.951C126.076 129.951 125.714 130.079 125.409 130.337C125.112 130.594 124.915 130.941 124.819 131.375ZM132.556 135.14C132.075 135.14 131.674 134.99 131.353 134.693C131.039 134.395 130.879 133.981 130.87 133.45V130.143H129.835V129.13H130.87V127.32H131.978V129.13H133.424V130.144H131.978V133.088C131.978 133.482 132.055 133.753 132.208 133.897C132.36 134.033 132.533 134.102 132.726 134.102C132.813 134.102 132.898 134.094 132.978 134.078C133.067 134.053 133.146 134.026 133.219 133.994L133.568 134.983C133.279 135.087 132.942 135.14 132.556 135.14ZM139.112 133.402C139.112 133.917 138.887 134.351 138.438 134.705C137.988 135.059 137.421 135.237 136.739 135.237C136.145 135.237 135.623 135.084 135.174 134.777C134.734 134.476 134.397 134.047 134.21 133.547L135.198 133.125C135.342 133.479 135.551 133.756 135.824 133.957C136.105 134.15 136.41 134.247 136.739 134.247C137.093 134.247 137.386 134.171 137.618 134.018C137.859 133.865 137.979 133.684 137.979 133.474C137.979 133.096 137.69 132.819 137.112 132.642L136.101 132.388C134.952 132.099 134.379 131.544 134.379 130.723C134.379 130.184 134.596 129.754 135.029 129.432C135.471 129.102 136.033 128.937 136.715 128.937C137.237 128.937 137.707 129.062 138.124 129.311C138.55 129.56 138.847 129.895 139.016 130.313L138.028 130.723C137.914 130.473 137.719 130.268 137.474 130.144C137.217 129.997 136.926 129.922 136.631 129.927C136.342 129.927 136.081 129.999 135.848 130.143C135.623 130.289 135.51 130.466 135.51 130.675C135.51 131.013 135.828 131.254 136.463 131.399L137.354 131.628C138.525 131.918 139.112 132.509 139.112 133.402Z" fill="#787879"/>
<g clip-path="url(#clip0_1627_3295)">
<path d="M109.557 56.0742C109.356 56.0744 109.155 56.0555 108.958 56.0178L108.842 55.9978L108.822 55.8783C108.803 55.7096 108.797 55.5399 108.802 55.3703V54.3177C108.802 54.1517 108.802 53.9857 108.802 53.7964C108.802 53.6072 108.802 53.4212 108.802 53.2287V51.0704C108.802 50.6819 108.802 50.3134 108.802 49.9448C108.802 49.5763 108.802 49.2807 108.802 48.9487C108.439 48.9482 108.084 48.8408 107.782 48.6399L107.705 48.5802V48.4839C107.795 47.7567 107.914 47.5708 108.368 47.4313C108.434 47.4114 108.497 47.3981 108.583 47.3782L108.782 47.335C108.78 46.942 108.804 46.5493 108.855 46.1596C109.107 43.2609 111.506 43.0352 112.244 43.0352C112.983 43.0352 113.484 43.1713 113.755 43.4104L113.825 43.4834C113.919 43.6154 113.961 43.7772 113.944 43.9383C113.925 44.0943 113.886 44.2472 113.828 44.3932C113.774 44.5379 113.694 44.6717 113.593 44.7883L113.573 44.8082H113.55C113.432 44.866 113.303 44.8966 113.172 44.8979C113.111 44.8982 113.051 44.8892 112.993 44.8713H112.97H112.95C112.932 44.8567 112.91 44.8474 112.887 44.8448H112.861H112.837C112.643 44.7982 112.444 44.777 112.244 44.7817C111.708 44.7817 111.078 44.9643 111.009 46.402C111.009 46.7008 111.009 46.9665 111.009 47.2753H111.602C111.983 47.2753 112.546 47.2587 112.765 47.242H112.957V47.438C112.907 48.3643 112.811 48.6997 112.347 48.8723L112.271 48.9055L112.152 48.9554H112.132H112.115C111.745 48.9865 111.373 48.9987 111.002 48.9919C111.002 51.0206 111.022 53.7333 111.038 55.4367C111.053 55.5556 111.029 55.6761 110.969 55.7799C110.91 55.8836 110.817 55.9649 110.707 56.0111C110.326 56.064 109.942 56.0851 109.557 56.0742Z" fill="#5E5D5D"/>
<path d="M116.193 56.27C113.685 56.27 112.466 54.7692 112.466 51.6779C112.466 48.7261 113.844 47.0294 116.249 47.0294C118.655 47.0294 119.937 48.5999 119.937 51.5717C119.937 54.4703 118.496 56.27 116.193 56.27ZM116.193 48.7261C115.308 48.7261 114.781 49.8052 114.781 51.6082C114.781 53.6004 115.269 54.5965 116.229 54.5965C117.131 54.5965 117.628 53.5373 117.628 51.6082C117.628 49.6791 117.157 48.7261 116.193 48.7261Z" fill="#5E5D5D"/>
<path d="M120.683 56.0741V55.9014C120.699 55.0913 120.719 53.8428 120.719 52.3752V49.3869C120.722 48.9509 120.647 48.518 120.497 48.1086L120.464 48.0056L120.537 47.9293C120.777 47.717 121.056 47.5534 121.358 47.4478C121.465 47.4095 121.577 47.3926 121.69 47.398C121.821 47.382 121.954 47.3998 122.076 47.4498C122.199 47.4997 122.306 47.5802 122.389 47.6836C122.684 47.5087 122.996 47.363 123.32 47.2486C123.59 47.1384 123.879 47.0809 124.171 47.0793C124.261 47.079 124.351 47.0857 124.44 47.0992C125.241 47.1822 125.434 47.5308 125.47 47.7334C125.478 48.1756 125.357 48.6106 125.122 48.9851L125.086 49.0349H125.029C124.923 49.0719 124.81 49.0866 124.698 49.0781C124.518 49.0775 124.337 49.0653 124.158 49.0416C124.091 49.0194 124.02 49.0082 123.949 49.0084C123.76 48.9977 123.571 49.0245 123.393 49.0871C123.214 49.1498 123.05 49.2472 122.909 49.3736V54.9186C122.932 55.2097 122.859 55.5003 122.7 55.7454V55.7686H122.68C122.349 56.0243 122.001 56.0343 120.868 56.0343L120.683 56.0741Z" fill="#5E5D5D"/>
<path d="M134.562 56.0741L134.516 55.9811C134.4 55.7528 134.339 55.5001 134.34 55.244V50.4294C134.34 49.0714 134.072 48.8357 133.512 48.8357C133.076 48.8665 132.667 49.0595 132.365 49.3769V55.5129C132.365 55.7022 132.282 55.9512 131.882 56.0508C131.649 56.0746 131.416 56.0824 131.182 56.0741H130.109V55.8981C130.142 55.0115 130.142 53.8627 130.142 52.5346V50.4128C130.142 49.0548 129.87 48.8158 129.297 48.8158C128.854 48.8378 128.437 49.0319 128.134 49.357V55.0016C128.158 55.2843 128.074 55.5654 127.899 55.7885C127.568 56.0541 127.273 56.0541 126.103 56.0541H125.901V55.8815C125.901 54.9916 125.901 53.8361 125.901 52.4947V49.3404C125.909 48.9046 125.84 48.4709 125.699 48.0587L125.666 47.9657L125.732 47.8894C125.969 47.6667 126.252 47.499 126.561 47.398C126.656 47.3664 126.755 47.3507 126.855 47.3515C126.988 47.348 127.12 47.3739 127.241 47.4272C127.362 47.4806 127.471 47.5602 127.558 47.6603C127.867 47.4681 128.202 47.3196 128.552 47.2187C128.941 47.0872 129.35 47.0243 129.761 47.0327C129.89 47.03 130.018 47.0367 130.145 47.0526C130.735 47.0781 131.294 47.3232 131.713 47.74C132.047 47.5227 132.409 47.3528 132.789 47.2353C133.166 47.106 133.561 47.0431 133.959 47.0493C134.095 47.0446 134.231 47.0513 134.366 47.0692C136.305 47.2353 136.57 48.8158 136.57 50.3398V53.3016C136.57 54.1715 136.57 54.9916 136.603 55.6092V55.7022L136.53 55.7553C136.199 56.0143 135.821 56.0873 134.665 56.0873L134.562 56.0741Z" fill="#5E5D5D"/>
<path d="M139.817 56.2534C138.574 56.2534 137.537 55.8583 137.295 55.2938V55.2639V55.2274C137.32 54.8423 137.455 54.4723 137.683 54.1616L137.736 54.0952H137.998C138.162 54.0983 138.323 54.1356 138.472 54.2047L138.597 54.2512C138.976 54.4187 139.383 54.5112 139.797 54.5235C139.895 54.5186 139.992 54.5075 140.088 54.4903C140.188 54.4865 140.286 54.4627 140.376 54.4203C140.466 54.3779 140.547 54.3177 140.613 54.2433C140.68 54.169 140.731 54.0819 140.763 53.9875C140.795 53.893 140.808 53.793 140.801 53.6934C140.801 53.3282 140.622 53.0526 140.198 52.7637C140.135 52.7148 140.07 52.6694 140.002 52.6276L140.052 52.5379L139.982 52.6209C139.555 52.3221 139.081 51.9369 138.76 51.6647L138.319 51.3127C138.051 51.0804 137.835 50.7948 137.683 50.4742C137.531 50.1535 137.448 49.8047 137.438 49.45C137.438 47.9791 138.621 47.0328 140.453 47.0328C140.634 47.0322 140.814 47.0444 140.993 47.0693C142.196 47.1623 142.769 47.6736 142.858 47.9923V48.0156V48.0388C142.825 48.4073 142.689 48.7591 142.467 49.0549L142.401 49.1412L142.292 49.1146C142.245 49.1146 142.136 49.0814 142.047 49.0648L141.944 49.0449C141.736 49.0125 141.531 48.9625 141.331 48.8955C141.095 48.7985 140.843 48.7478 140.589 48.7461C140.075 48.7461 139.744 49.0017 139.744 49.3935C139.744 49.616 139.817 49.8185 140.161 50.1008L140.221 50.1406C140.406 50.2801 140.645 50.4527 140.9 50.6287C141.099 50.7881 141.311 50.9375 141.51 51.0836C141.709 51.2297 141.808 51.2994 141.937 51.399C142.739 52.0631 143.11 52.7438 143.11 53.534C143.093 55.1842 141.805 56.2534 139.817 56.2534Z" fill="#5E5D5D"/>
<path d="M96.0001 56.1638C95.706 55.907 95.4843 55.5772 95.3574 55.2075L95.2381 54.7858L95.1221 54.3675C95.0923 54.2645 95.0658 54.1649 95.0426 54.0753L94.9996 53.9059C94.824 53.1755 94.6384 52.352 94.496 51.7045C94.3535 52.2823 94.1945 52.8999 94.0454 53.4676L93.5583 55.3304V55.347C93.5574 55.3636 93.5574 55.3802 93.5583 55.3968C93.5583 55.3968 93.5583 55.4233 93.5583 55.4399C93.4656 55.7554 93.3927 56.0044 93.0382 56.1239C92.8758 56.1505 92.5511 56.1671 91.8918 56.2036H91.8288L91.7791 56.1638C91.4695 55.9122 91.2384 55.5768 91.1132 55.1976L90.7819 53.9458C90.4936 52.8833 90.1491 51.6215 89.8409 50.4926C89.6885 49.9182 89.2247 48.1684 89.0855 47.8629L89.0491 47.7832L89.0921 47.7068C89.2976 47.3383 89.8873 47.1756 91.0005 47.1756H91.0602L91.1066 47.2121C91.3077 47.3978 91.4466 47.6414 91.5041 47.9094C91.6632 48.6066 91.8355 49.357 92.021 50.0875C92.0806 50.3565 92.1337 50.6254 92.1867 50.8811C92.2264 51.0836 92.2662 51.2795 92.3059 51.4621L92.4716 52.279C92.4716 52.3354 92.4915 52.3852 92.5014 52.4317C92.5876 52.0631 92.6903 51.6348 92.793 51.1932C92.8957 50.7516 93.4556 48.507 93.5384 48.0754C93.5589 48.0178 93.5701 47.9572 93.5716 47.8961V47.6803L93.6047 47.6338C93.7273 47.4744 94.6749 47.3017 95.0194 47.3017C95.0952 47.2994 95.171 47.3073 95.2447 47.325H95.2845L95.3143 47.3549C95.5334 47.5747 95.6713 47.8628 95.7053 48.1717C95.9007 49.0283 96.1492 50.0809 96.4176 51.1866C96.454 51.3493 96.4872 51.5186 96.5203 51.6747C96.5667 51.8971 96.6131 52.1196 96.6661 52.3387C96.6661 52.3885 96.686 52.4317 96.6959 52.4715C96.8483 51.834 97.004 51.1002 97.1631 50.3365L97.2426 49.9746C97.4248 49.2209 97.5739 48.4871 97.7396 47.7267V47.6769V47.6105V47.584C97.7646 47.5031 97.8026 47.4268 97.8522 47.3582V47.3383H97.8721C98.0139 47.2325 98.1897 47.1829 98.3658 47.1988C98.786 47.2151 99.2039 47.2684 99.6148 47.3582C99.6668 47.3871 99.7123 47.4265 99.7482 47.4739C99.7841 47.5214 99.8098 47.5758 99.8236 47.6338C99.8462 47.8588 99.8167 48.0861 99.7374 48.2978L99.6745 48.4572C99.5519 48.8689 99.4227 49.3438 99.2835 49.8518C99.1841 50.227 99.0748 50.6221 98.9522 51.0239C98.5414 52.5612 98.1073 54.1516 97.7429 55.3403C97.7347 55.3551 97.728 55.3707 97.723 55.3868V55.4532C97.6534 55.7454 97.5872 56.0243 97.2194 56.1472C97.067 56.1704 96.7754 56.187 96.1989 56.2202H96.0101L96.0001 56.1638Z" fill="#B85A1B"/>
<path d="M101.384 59.6436C101.132 59.6374 100.881 59.6062 100.635 59.5506L100.522 59.524L100.502 59.4111C100.443 58.8032 100.424 58.192 100.446 57.5816V49.3604C100.458 48.9311 100.395 48.5031 100.26 48.0954L100.234 48.0223L100.277 47.9526C100.493 47.6975 100.781 47.5126 101.102 47.4213C101.199 47.3923 101.299 47.3756 101.4 47.3715C101.533 47.3698 101.665 47.3967 101.787 47.4506C101.909 47.5044 102.017 47.5839 102.106 47.6836C102.41 47.4947 102.733 47.3389 103.07 47.2188C103.441 47.0807 103.834 47.0109 104.23 47.0129C106.363 47.0129 107.586 48.4938 107.586 51.0704C107.586 53.139 107.009 54.6929 105.929 55.5562C105.356 56.0328 104.63 56.2862 103.885 56.2701C103.47 56.2829 103.056 56.2152 102.666 56.0709V58.4748C102.673 58.7387 102.661 59.0029 102.629 59.265V59.3348L102.503 59.4311C102.152 59.5897 101.768 59.6625 101.384 59.6436ZM102.656 54.1949C102.917 54.4314 103.255 54.5668 103.607 54.5767C104.402 54.5767 105.263 53.6868 105.263 51.1966C105.263 49.0616 104.465 48.8159 103.865 48.8159C103.42 48.8546 102.999 49.0363 102.666 49.3338L102.656 54.1949Z" fill="#B85A1B"/>
<path d="M59.1265 52.6243C60.8261 52.8534 62.3138 52.4682 63.5231 51.3792L65.5474 51.4854L64.4441 54.7427C63.2183 56.6917 61.4391 57.1068 59.6168 56.9839L59.1265 52.6243Z" fill="#7EAABA"/>
<path d="M59.8787 53.3614L60.21 56.3498C61.7274 56.3498 62.9367 55.8418 63.8545 54.4605L64.653 52.1362L63.765 52.0898C62.6787 52.9895 61.2962 53.4502 59.8886 53.3814L59.8787 53.3614Z" fill="#D3E8EF"/>
<path d="M59.8787 53.3614L60.0775 55.1246C62.1614 54.8788 63.7849 54.0189 64.6265 52.1163L63.7385 52.0698C62.6588 52.9697 61.2813 53.4306 59.8787 53.3614Z" fill="white"/>
<path d="M59.6171 50.0744C60.2995 50.0737 60.9668 50.276 61.5345 50.6555C62.1022 51.0351 62.5448 51.5749 62.8063 52.2066C63.0677 52.8383 63.1363 53.5336 63.0033 54.2044C62.8704 54.8752 62.5418 55.4914 62.0592 55.975C61.5767 56.4586 60.9618 56.7878 60.2925 56.9211C59.6231 57.0544 58.9294 56.9856 58.299 56.7236C57.6686 56.4616 57.13 56.018 56.7513 55.4491C56.3725 54.8802 56.1707 54.2115 56.1714 53.5275C56.1731 52.6122 56.5367 51.7349 57.1825 51.0877C57.8284 50.4405 58.7038 50.0761 59.6171 50.0744Z" fill="#7EAABA"/>
<path d="M59.617 50.7483C59.071 50.7476 58.537 50.9093 58.0827 51.2128C57.6285 51.5163 57.2742 51.9481 57.0648 52.4534C56.8554 52.9587 56.8003 53.515 56.9064 54.0517C57.0125 54.5884 57.2751 55.0816 57.6609 55.4687C58.0468 55.8559 58.5385 56.1196 59.074 56.2266C59.6095 56.3336 60.1645 56.279 60.669 56.0698C61.1735 55.8605 61.6048 55.506 61.9082 55.0511C62.2116 54.5962 62.3735 54.0613 62.3735 53.5141C62.374 53.1511 62.303 52.7915 62.1647 52.456C62.0263 52.1204 61.8233 51.8155 61.5673 51.5586C61.3113 51.3017 61.0073 51.0979 60.6726 50.9589C60.338 50.8199 59.9792 50.7483 59.617 50.7483Z" fill="#D3E8EF"/>
<path d="M59.6173 50.7483C59.1722 50.746 58.7332 50.8525 58.3383 51.0585C57.9434 51.2644 57.6046 51.5637 57.3511 51.9304C57.398 52.6322 57.7084 53.2902 58.2198 53.7719C58.7312 54.2537 59.4058 54.5234 60.1076 54.5269C60.5528 54.5292 60.9918 54.4227 61.3866 54.2168C61.7815 54.0108 62.1203 53.7115 62.3739 53.3448C62.33 52.6419 62.0206 51.9821 61.5085 51.4997C60.9964 51.0173 60.3201 50.7486 59.6173 50.7483Z" fill="white"/>
<path d="M59.2661 50.5823C59.7759 50.5823 60.2743 50.7341 60.698 51.0183C61.1217 51.3025 61.4516 51.7064 61.646 52.1788C61.8403 52.6512 61.8903 53.1708 61.7897 53.6717C61.689 54.1726 61.4421 54.6322 61.0805 54.9924C60.7188 55.3525 60.2585 55.5969 59.758 55.6946C59.2576 55.7922 58.7395 55.7388 58.2694 55.541C57.7993 55.3432 57.3984 55.0099 57.1175 54.5835C56.8366 54.157 56.6884 53.6566 56.6917 53.1456C56.6943 52.4637 56.9669 51.8108 57.4496 51.3301C57.9323 50.8495 58.5856 50.5805 59.2661 50.5823Z" fill="#7EAABA"/>
<path d="M59.0803 49.8883C59.592 49.889 60.092 50.0419 60.5169 50.3276C60.9418 50.6133 61.2725 51.019 61.4671 51.4933C61.6617 51.9675 61.7114 52.489 61.61 52.9916C61.5085 53.4942 61.2605 53.9554 60.8973 54.3166C60.5341 54.6778 60.072 54.9228 59.5697 55.0206C59.0674 55.1183 58.5475 55.0645 58.0758 54.8658C57.604 54.6672 57.2018 54.3326 56.92 53.9046C56.6381 53.4766 56.4894 52.9744 56.4927 52.4616C56.498 51.7767 56.7727 51.1215 57.2572 50.6384C57.7417 50.1554 58.3969 49.8834 59.0803 49.8817" fill="#7F3E13"/>
<path d="M59.3257 50.8711C58.9194 50.8711 58.5222 50.9918 58.1844 51.218C57.8466 51.4442 57.5833 51.7658 57.4279 52.1419C57.2724 52.5181 57.2317 52.932 57.311 53.3313C57.3902 53.7307 57.5859 54.0975 57.8731 54.3854C58.1604 54.6733 58.5264 54.8693 58.9249 54.9488C59.3234 55.0282 59.7364 54.9874 60.1118 54.8316C60.4871 54.6758 60.8079 54.412 61.0336 54.0734C61.2594 53.7349 61.3798 53.3369 61.3798 52.9297C61.379 52.384 61.1623 51.8609 60.7772 51.475C60.3922 51.0891 59.8702 50.872 59.3257 50.8711Z" fill="#B85A1B"/>
<path d="M57.7786 47.8131C57.7786 47.5137 57.8973 47.2266 58.1086 47.0149C58.3198 46.8031 58.6063 46.6842 58.9051 46.6842C59.2039 46.6842 59.4904 46.8031 59.7016 47.0149C59.9129 47.2266 60.0316 47.5137 60.0316 47.8131C60.6578 46.7506 62.6358 47.335 62.0195 48.9952C62.0532 49.1263 62.0786 49.2593 62.0957 49.3936C63.1692 49.4534 63.5204 51.1268 62.0493 51.6515C61.9398 52.0815 61.7424 52.484 61.4695 52.8335C60.2105 53.9226 59.8129 53.0327 59.1238 52.2956C58.4611 52.2956 56.672 51.8507 57.1789 53.5374C56.0326 52.7937 55.297 51.3028 55.847 49.1213C55.0817 47.3549 57.1193 46.6975 57.7786 47.7932V47.8131Z" fill="#7F3E13"/>
<path d="M56.5394 49.367C56.2777 50.4262 56.2611 51.6249 57.0132 52.4848C58.0701 53.6968 60.2138 53.637 61.042 52.1163C61.486 51.2862 61.4562 50.2569 61.2707 49.3537C59.7093 49.0383 58.1008 49.0383 56.5394 49.3537V49.367Z" fill="#B85A1B"/>
<path d="M56.5394 49.367C56.2777 50.4261 56.2611 51.6248 57.0132 52.4848C57.2539 52.7498 57.547 52.9616 57.8738 53.1068C58.2007 53.252 58.5541 53.3274 58.9117 53.3281V49.1212C58.1149 49.1274 57.3206 49.2097 56.5394 49.367Z" fill="#E1762F"/>
<path d="M57.5797 50.1805C57.4787 50.4702 57.451 50.7804 57.499 51.0835C57.547 51.3865 57.6692 51.6729 57.8547 51.9171C57.9994 52.0823 58.1813 52.2106 58.3853 52.2916C58.5893 52.3725 58.8096 52.4038 59.028 52.3827C59.2464 52.3616 59.4566 52.2888 59.6415 52.1704C59.8263 52.0519 59.9804 51.8911 60.0911 51.7012C60.3085 51.2197 60.3519 50.6773 60.2137 50.1672C59.3446 49.9896 58.4487 49.9896 57.5797 50.1672" fill="#7F3E13"/>
<path d="M58.8979 48.5536C59.0489 48.5423 59.19 48.4743 59.2929 48.3631C59.3959 48.252 59.4531 48.1059 59.4531 47.9542C59.4531 47.8026 59.3959 47.6565 59.2929 47.5454C59.19 47.4342 59.0489 47.3662 58.8979 47.3549V48.5536ZM61.0581 47.8131C61.176 47.8138 61.2909 47.8494 61.3886 47.9155C61.4862 47.9815 61.5621 48.0751 61.6068 48.1844C61.6514 48.2936 61.6627 48.4137 61.6393 48.5294C61.616 48.6451 61.5589 48.7513 61.4754 48.8346C61.3918 48.9178 61.2856 48.9744 61.17 48.9972C61.0544 49.02 60.9346 49.008 60.8259 48.9626C60.7171 48.9173 60.6241 48.8407 60.5587 48.7425C60.4934 48.6443 60.4585 48.5289 60.4585 48.4108C60.4593 48.252 60.5229 48.1 60.6353 47.988C60.7476 47.876 60.8997 47.8131 61.0581 47.8131Z" fill="#B85A1B"/>
<path d="M56.8609 47.863C57.0118 47.8742 57.1529 47.9423 57.2559 48.0534C57.3588 48.1646 57.4161 48.3106 57.4161 48.4623C57.4161 48.614 57.3588 48.76 57.2559 48.8712C57.1529 48.9823 57.0118 49.0503 56.8609 49.0616C56.7057 49.0584 56.5575 48.9963 56.4461 48.8879C56.3348 48.7794 56.2688 48.6326 56.2612 48.4772C56.2621 48.3184 56.3257 48.1664 56.438 48.0544C56.5504 47.9424 56.7024 47.8796 56.8609 47.8796M58.8985 48.5702V47.3716C58.7432 47.3774 58.5959 47.4426 58.4869 47.5537C58.3779 47.6648 58.3154 47.8134 58.3121 47.9692C58.3125 48.0472 58.3284 48.1244 58.3589 48.1962C58.3894 48.268 58.4339 48.333 58.4897 48.3874C58.5455 48.4418 58.6116 48.4845 58.6841 48.513C58.7565 48.5416 58.8339 48.5554 58.9118 48.5536L58.8985 48.5702Z" fill="#E1762F"/>
<path d="M61.7315 49.968C61.8494 49.968 61.9647 50.0031 62.0628 50.0687C62.1609 50.1344 62.2373 50.2278 62.2824 50.337C62.3276 50.4462 62.3394 50.5663 62.3164 50.6823C62.2934 50.7982 62.2366 50.9047 62.1532 50.9883C62.0698 51.0719 61.9635 51.1288 61.8478 51.1519C61.7321 51.1749 61.6122 51.1631 61.5032 51.1178C61.3943 51.0726 61.3011 50.996 61.2356 50.8977C61.1701 50.7994 61.1351 50.6839 61.1351 50.5657C61.1338 50.4868 61.1483 50.4085 61.1778 50.3354C61.2072 50.2623 61.2511 50.1958 61.3068 50.1401C61.3624 50.0843 61.4287 50.0403 61.5017 50.0108C61.5746 49.9812 61.6528 49.9667 61.7315 49.968Z" fill="#B85A1B"/>
<path d="M82.2297 57.0304C82.0939 55.2341 81.2821 53.9424 79.6885 53.2518L80.0198 52.01L82.5941 51.316C84.8305 51.9801 85.6887 53.4377 86.1161 55.2341L82.2396 57.0304H82.2297Z" fill="#7EAABA"/>
<path d="M82.7662 56.0476L85.3273 54.8489C84.88 53.3448 84.1313 52.3786 82.5542 51.9934L80.5464 52.5313L80.4536 52.8633C81.043 53.1978 81.5546 53.6541 81.9545 54.202C82.3543 54.7499 82.6333 55.3767 82.7728 56.0409L82.7662 56.0476Z" fill="white"/>
<path d="M79.7481 57.3359C79.5412 56.7061 79.5253 56.029 79.7023 55.3902C79.8793 54.7514 80.2413 54.1795 80.7425 53.7467C81.2437 53.314 81.8617 53.0398 82.5183 52.9589C83.1749 52.878 83.8407 52.994 84.4316 53.2921C85.0225 53.5903 85.5119 54.0573 85.838 54.6341C86.1642 55.211 86.3124 55.8717 86.264 56.5329C86.2155 57.1942 85.9726 57.8262 85.5659 58.3491C85.1592 58.872 84.607 59.2623 83.979 59.4708C83.5614 59.6104 83.1203 59.6659 82.6812 59.634C82.2421 59.6022 81.8137 59.4836 81.4205 59.2852C81.0273 59.0868 80.6771 58.8124 80.3901 58.4779C80.103 58.1433 79.8849 57.7552 79.7481 57.3359Z" fill="#7EAABA"/>
<path d="M80.3013 57.1534C80.4728 57.6739 80.7944 58.1318 81.2256 58.4693C81.6567 58.8067 82.178 59.0084 82.7236 59.049C83.2691 59.0895 83.8144 58.9671 84.2905 58.6972C84.7666 58.4272 85.1522 58.0219 85.3985 57.5324C85.6448 57.0429 85.7408 56.4912 85.6743 55.9471C85.6078 55.4029 85.3818 54.8907 85.0249 54.4753C84.668 54.0598 84.1963 53.7597 83.6692 53.6129C83.1422 53.466 82.5835 53.4791 82.0639 53.6504C81.7183 53.7638 81.3984 53.9446 81.1226 54.1822C80.8468 54.4198 80.6206 54.7097 80.4568 55.0351C80.2931 55.3605 80.195 55.7152 80.1683 56.0787C80.1416 56.4422 80.1868 56.8074 80.3013 57.1534Z" fill="#D3E8EF"/>
<path d="M85.6625 55.9082C85.6431 55.7414 85.6076 55.5768 85.5565 55.4168C85.4433 55.0708 85.263 54.7506 85.0262 54.4745C84.7893 54.1984 84.5004 53.9718 84.176 53.8077C83.8517 53.6437 83.4982 53.5453 83.1359 53.5183C82.7735 53.4913 82.4094 53.5362 82.0644 53.6504C81.6376 53.798 81.2492 54.0396 80.928 54.3576C80.9501 54.5243 80.9867 54.6887 81.0373 54.849C81.2675 55.5467 81.7644 56.1245 82.419 56.4556C83.0736 56.7868 83.8326 56.8442 84.5294 56.6154C84.9622 56.4828 85.3528 56.239 85.6625 55.9082Z" fill="white"/>
<path d="M79.122 58.1958C78.9261 57.6018 78.9105 56.9629 79.0771 56.3601C79.2437 55.7572 79.585 55.2174 80.058 54.809C80.5309 54.4007 81.114 54.1422 81.7336 54.0662C82.3532 53.9902 82.9814 54.1001 83.5386 54.3821C84.0958 54.6641 84.557 55.1055 84.8638 55.6503C85.1706 56.1951 85.3091 56.8189 85.2619 57.4427C85.2147 58.0665 84.9839 58.6623 84.5987 59.1545C84.2134 59.6467 83.6911 60.0134 83.0978 60.2079C82.705 60.3382 82.2903 60.3894 81.8777 60.3587C81.465 60.328 81.0625 60.216 80.6931 60.029C80.3237 59.8421 79.9948 59.5839 79.7252 59.2693C79.4556 58.9548 79.2506 58.5899 79.122 58.1958Z" fill="#7F3E13"/>
<path d="M79.7645 57.9967C79.61 57.5292 79.5972 57.0262 79.7278 56.5515C79.8585 56.0767 80.1267 55.6514 80.4985 55.3293C80.8703 55.0073 81.3291 54.803 81.8168 54.7422C82.3044 54.6815 82.7992 54.767 83.2383 54.988C83.6775 55.209 84.0415 55.5555 84.2841 55.9838C84.5268 56.4121 84.6373 56.9028 84.6017 57.394C84.566 57.8852 84.3859 58.3548 84.0839 58.7434C83.782 59.132 83.3719 59.4222 82.9054 59.5772C82.2798 59.7842 81.5977 59.734 81.0089 59.4377C80.4201 59.1414 79.9726 58.6232 79.7645 57.9967Z" fill="#B85A1B"/>
<path d="M79.6584 56.8146C79.7318 56.3606 79.9273 55.9352 80.2238 55.5842C80.5204 55.2331 80.9068 54.9698 81.3415 54.8224C81.6524 54.7197 81.9804 54.6794 82.3068 54.704C82.6332 54.7285 82.9516 54.8174 83.2436 54.9654C83.5357 55.1135 83.7958 55.3178 84.0089 55.5668C84.2221 55.8157 84.3841 56.1043 84.4858 56.4161C84.5504 56.6154 84.5915 56.8216 84.6084 57.0304C83.8605 57.505 82.9856 57.7387 82.1013 57.7002C81.2169 57.6616 80.3656 57.3525 79.6618 56.8146H79.6584Z" fill="#E1762F"/>
<path d="M68.1985 37.8521C68.8192 37.8712 69.4073 38.1352 69.8348 38.5866C70.2623 39.0381 70.4947 39.6404 70.4813 40.2627C70.4901 40.5713 70.438 40.8787 70.3279 41.1672C70.2178 41.4556 70.0519 41.7194 69.8398 41.9434C69.6277 42.1674 69.3735 42.3472 69.0918 42.4724C68.8101 42.5977 68.5066 42.6659 68.1985 42.6732C67.5804 42.6507 66.996 42.3851 66.5718 41.9339C66.1477 41.4828 65.9179 40.8824 65.9323 40.2627C65.9179 39.643 66.1477 39.0425 66.5718 38.5914C66.996 38.1402 67.5804 37.8746 68.1985 37.8521Z" fill="#7F3E13"/>
<path d="M68.1989 38.5162C67.756 38.5369 67.3391 38.7319 67.0388 39.059C66.7385 39.386 66.5792 39.8186 66.5954 40.2627C66.5801 40.708 66.7405 41.1414 67.0419 41.469C67.3433 41.7965 67.7614 41.9918 68.2056 42.0125C68.65 41.9935 69.0688 41.7986 69.3701 41.4706C69.6713 41.1425 69.8304 40.7081 69.8125 40.2627C69.8251 39.8179 69.6632 39.3858 69.3616 39.0592C69.0599 38.7327 68.6425 38.5377 68.1989 38.5162Z" fill="#B85A1B"/>
<path d="M68.1982 39.1801C68.0643 39.1902 67.9338 39.2266 67.814 39.2874C67.6942 39.3481 67.5876 39.4319 67.5002 39.534C67.4127 39.6361 67.3463 39.7544 67.3046 39.8823C67.2629 40.0102 67.2468 40.145 67.2572 40.2792C67.2442 40.5487 67.3361 40.8128 67.5134 41.0159C67.6908 41.2191 67.9398 41.3453 68.2081 41.3682C68.4763 41.3478 68.7256 41.2218 68.9013 41.0177C69.077 40.8136 69.1649 40.548 69.1457 40.2792C69.1623 40.0082 69.0724 39.7416 68.8953 39.5362C68.7183 39.3308 68.468 39.203 68.1982 39.1801Z" fill="#63300F"/>
<path d="M77.8794 37.8521C78.503 37.8669 79.0954 38.129 79.5264 38.5809C79.9575 39.0328 80.1921 39.6376 80.1787 40.2627C80.1955 40.5735 80.1488 40.8844 80.0416 41.1765C79.9345 41.4687 79.769 41.7358 79.5554 41.9618C79.3418 42.1877 79.0845 42.3677 78.7992 42.4906C78.5139 42.6136 78.2065 42.677 77.896 42.677C77.5854 42.677 77.2781 42.6136 76.9928 42.4906C76.7074 42.3677 76.4501 42.1877 76.2365 41.9618C76.0229 41.7358 75.8575 41.4687 75.7503 41.1765C75.6431 40.8844 75.5965 40.5735 75.6132 40.2627C75.5997 39.6432 75.8298 39.0433 76.2537 38.5923C76.6777 38.1413 77.2616 37.8755 77.8794 37.8521Z" fill="#7F3E13"/>
<path d="M77.8797 38.5162C77.4352 38.5352 77.0164 38.73 76.7152 39.0581C76.4139 39.3861 76.2548 39.8205 76.2728 40.266C76.2553 40.4884 76.284 40.7119 76.3569 40.9226C76.4298 41.1334 76.5454 41.3267 76.6965 41.4905C76.8476 41.6542 77.0308 41.7849 77.2347 41.8743C77.4386 41.9637 77.6588 42.0098 77.8813 42.0098C78.1039 42.0098 78.324 41.9637 78.5279 41.8743C78.7319 41.7849 78.9151 41.6542 79.0662 41.4905C79.2172 41.3267 79.3329 41.1334 79.4058 40.9226C79.4787 40.7119 79.5074 40.4884 79.4899 40.266C79.5026 39.8214 79.3413 39.3894 79.0404 39.0624C78.7395 38.7355 78.3229 38.5394 77.8797 38.5162Z" fill="#B85A1B"/>
<path d="M77.8792 39.1801C77.7451 39.189 77.614 39.2243 77.4936 39.284C77.3731 39.3438 77.2656 39.4268 77.1773 39.5283C77.0889 39.6298 77.0214 39.7478 76.9787 39.8755C76.936 40.0032 76.9189 40.1381 76.9283 40.2725C76.9153 40.5421 77.0072 40.8062 77.1845 41.0093C77.3618 41.2124 77.6109 41.3387 77.8792 41.3616C78.0132 41.3532 78.1441 41.3182 78.2646 41.2588C78.385 41.1994 78.4925 41.1167 78.5809 41.0155C78.6693 40.9142 78.7369 40.7965 78.7796 40.669C78.8224 40.5414 78.8395 40.4067 78.8301 40.2725C78.8439 40.0024 78.7525 39.7374 78.5751 39.5336C78.3977 39.3298 78.1481 39.203 77.8792 39.1801Z" fill="#4F2800"/>
<path d="M81.504 46.5115H81.4609V41.9991C81.4609 40.6411 78.2803 39.8774 74.6855 39.6981C74.6881 39.6039 74.6721 39.5102 74.6386 39.4221C74.605 39.3341 74.5545 39.2536 74.4899 39.1851C74.4253 39.1167 74.3479 39.0617 74.262 39.0232C74.1762 38.9848 74.0837 38.9636 73.9897 38.961C73.8957 38.9584 73.8021 38.9743 73.7143 39.008C73.6265 39.0416 73.5461 39.0922 73.4778 39.157C73.3399 39.2877 73.2594 39.4681 73.2542 39.6583H72.8334C72.817 39.4756 72.7317 39.3062 72.595 39.1843C72.4582 39.0625 72.2803 38.9975 72.0974 39.0026C71.9145 39.0077 71.7404 39.0824 71.6106 39.2117C71.4808 39.3409 71.405 39.5149 71.3988 39.6981C67.8073 39.8708 64.6266 40.6345 64.6266 41.9825V46.4849H64.5802C64.2633 46.6051 63.9908 46.8198 63.7995 47.1C63.6081 47.3803 63.5071 47.7126 63.5101 48.0521V51.3526L73.0388 54.4538L82.5675 51.3061V48.0787C82.571 47.7399 82.471 47.4082 82.2808 47.1281C82.0907 46.8479 81.8197 46.6328 81.504 46.5115Z" fill="#7F3E13"/>
<path d="M65.3918 42.1685V47.0195L64.9942 47.1723C64.7813 47.25 64.5978 47.392 64.469 47.5788C64.3402 47.7656 64.2725 47.9878 64.2752 48.2148V51.6248L73.0519 54.4538L81.8351 51.5618V48.2148C81.8374 47.9897 81.771 47.7693 81.6449 47.583C81.5188 47.3967 81.339 47.2534 81.1294 47.1723L80.7318 47.0195V42.1685C80.7153 39.8675 65.4249 39.8675 65.4083 42.1685H65.3918Z" fill="#B85A1B"/>
<path d="M65.3918 42.1684V47.0195L64.9942 47.1722C64.7813 47.2499 64.5978 47.392 64.469 47.5788C64.3402 47.7655 64.2725 47.9878 64.2752 48.2148V51.6248L73.0519 54.4538V52.6076C70.0203 52.6242 66.9854 50.6154 67.7839 46.6808H73.0519V40.4485C69.2218 40.4485 65.3918 41.0295 65.3918 42.1684Z" fill="#E1762F"/>
<path d="M67.3701 45.6516H78.7542C80.3611 54.2181 65.6241 54.1584 67.3701 45.6516Z" fill="#E5895B"/>
<path d="M67.9204 46.329C67.768 47.6571 68.043 48.9222 69.0237 49.9216C70.0674 50.9642 71.6279 51.4091 73.0691 51.3958C74.5103 51.3825 75.935 50.9509 76.9621 49.9681C77.4364 49.4977 77.7931 48.9217 78.0033 48.287C78.2134 47.6523 78.271 46.9769 78.1714 46.3157L67.9204 46.329Z" fill="#E5895B"/>
<path d="M74.9541 50.32C75.7194 51.3161 77.9559 50.9044 77.2733 48.7993L74.9541 50.32Z" fill="#FAD395"/>
<path d="M74.2485 50.1041C75.1067 51.2098 77.893 50.5491 77.2536 48.1551L74.2485 50.1041Z" fill="#4F2800"/>
<path d="M76.8224 48.2614C76.9076 48.2415 76.9972 48.2561 77.0717 48.3021C77.1462 48.3482 77.1995 48.4219 77.22 48.5071C77.2471 48.551 77.2636 48.6006 77.2683 48.652C77.2729 48.7034 77.2656 48.7551 77.2468 48.8032C77.228 48.8512 77.1983 48.8942 77.16 48.9287C77.1218 48.9632 77.076 48.9884 77.0264 49.0021C76.9767 49.0158 76.9246 49.0177 76.8741 49.0077C76.8236 48.9977 76.7761 48.9761 76.7354 48.9445C76.6947 48.9129 76.6619 48.8722 76.6396 48.8257C76.6173 48.7792 76.6062 48.7281 76.607 48.6765C76.581 48.5928 76.5891 48.5022 76.6294 48.4245C76.6697 48.3468 76.7391 48.2881 76.8224 48.2614ZM75.0001 49.5365C75.0854 49.5165 75.175 49.5311 75.2495 49.5772C75.324 49.6232 75.3773 49.6969 75.3977 49.7822C75.4237 49.8658 75.4157 49.9564 75.3754 50.0341C75.335 50.1119 75.2656 50.1705 75.1824 50.1972C75.0971 50.2172 75.0075 50.2025 74.933 50.1565C74.8585 50.1105 74.8052 50.0368 74.7848 49.9515C74.7588 49.8678 74.7668 49.7773 74.8071 49.6995C74.8475 49.6218 74.9169 49.5632 75.0001 49.5365Z" fill="white"/>
<path d="M76.1168 50.5356C76.444 50.4394 76.7352 50.2479 76.9535 49.9854C77.1718 49.7229 77.3072 49.4012 77.3427 49.0614C76.8524 48.985 75.9942 49.7255 76.1168 50.5356Z" fill="#AD6151"/>
<path d="M68.5334 45.6516H77.5585C78.844 51.7777 67.1551 51.7179 68.5334 45.6516Z" fill="#FAD395"/>
<path d="M73.0391 49.1412C73.0964 48.7736 73.2432 48.4258 73.4665 48.1285C74.5566 47.9592 75.4909 47.1324 75.1993 45.6548C74.5094 45.4121 73.7836 45.2875 73.0524 45.2863L72.6084 46.6842L73.0391 49.1412Z" fill="#4F2800"/>
<path d="M73.0384 49.1412C72.9799 48.7734 72.8319 48.4256 72.6077 48.1285C71.5209 47.9592 70.5866 47.1324 70.8782 45.6548C71.5671 45.4124 72.2917 45.2878 73.0218 45.2863L73.0384 49.1412Z" fill="#63300F"/>
<path d="M71.4452 45.8673C72.4943 45.591 73.5967 45.591 74.6458 45.8673C75.0931 46.9862 70.9549 46.973 71.4452 45.8673Z" fill="#AD6151"/>
<path d="M71.3221 42.7496C71.5622 42.7489 71.7971 42.8197 71.9971 42.953C72.197 43.0863 72.3529 43.276 72.4451 43.4982C72.5373 43.7204 72.5616 43.965 72.5149 44.2011C72.4682 44.4371 72.3527 44.654 72.1829 44.8241C72.0131 44.9943 71.7967 45.1101 71.5612 45.1569C71.3256 45.2037 71.0816 45.1793 70.8598 45.0869C70.6381 44.9945 70.4488 44.8383 70.3158 44.6379C70.1828 44.4376 70.1121 44.2021 70.1128 43.9615C70.1137 43.6404 70.2414 43.3326 70.468 43.1055C70.6946 42.8784 71.0017 42.7505 71.3221 42.7496Z" fill="white"/>
<path d="M71.4153 43.1811C71.5943 43.1811 71.7693 43.2344 71.9181 43.3341C72.0669 43.4339 72.1829 43.5757 72.2512 43.7415C72.3196 43.9073 72.3373 44.0897 72.3021 44.2657C72.267 44.4416 72.1805 44.6031 72.0537 44.7297C71.9268 44.8564 71.7654 44.9424 71.5897 44.977C71.414 45.0116 71.232 44.9932 71.0668 44.9241C70.9016 44.855 70.7606 44.7383 70.6616 44.5888C70.5626 44.4393 70.5101 44.2637 70.5108 44.0843C70.5099 43.9652 70.5327 43.847 70.5779 43.7368C70.6231 43.6267 70.6897 43.5266 70.7739 43.4425C70.8581 43.3584 70.9582 43.292 71.0683 43.2471C71.1785 43.2022 71.2964 43.1798 71.4153 43.1811Z" fill="#1B1D23"/>
<path d="M74.7853 42.7496C74.5452 42.7489 74.3103 42.8197 74.1103 42.953C73.9104 43.0863 73.7545 43.276 73.6623 43.4982C73.5701 43.7204 73.5458 43.965 73.5925 44.2011C73.6392 44.4371 73.7547 44.654 73.9245 44.8241C74.0943 44.9943 74.3107 45.1101 74.5462 45.1569C74.7817 45.2037 75.0258 45.1793 75.2475 45.0869C75.4693 44.9945 75.6586 44.8383 75.7916 44.6379C75.9246 44.4376 75.9952 44.2021 75.9946 43.9615C75.9937 43.6404 75.866 43.3326 75.6394 43.1055C75.4128 42.8784 75.1057 42.7505 74.7853 42.7496Z" fill="white"/>
<path d="M74.7085 43.1813C74.5294 43.1813 74.3544 43.2346 74.2056 43.3343C74.0568 43.4341 73.9408 43.5759 73.8725 43.7417C73.8041 43.9075 73.7864 44.0899 73.8216 44.2659C73.8567 44.4418 73.9432 44.6033 74.0701 44.7299C74.1969 44.8566 74.3584 44.9426 74.534 44.9772C74.7097 45.0118 74.8917 44.9934 75.0569 44.9243C75.2221 44.8552 75.3631 44.7385 75.4621 44.589C75.5611 44.4395 75.6136 44.2639 75.613 44.0845C75.6095 43.8454 75.513 43.6172 75.344 43.4485C75.175 43.2798 74.947 43.1839 74.7085 43.1813Z" fill="#1B1D23"/>
<path d="M72.1978 42.3678C71.7727 42.272 71.3329 42.262 70.904 42.3384C70.4751 42.4148 70.0657 42.576 69.6996 42.8127C69.4379 41.3219 71.936 40.877 72.1978 42.3678Z" fill="#63300F"/>
<path d="M73.665 41.6141C74.0901 41.5183 74.5299 41.5083 74.9588 41.5846C75.3877 41.661 75.7971 41.8223 76.1632 42.059C76.4249 40.5682 73.9433 40.1398 73.665 41.6141Z" fill="#4F2800"/>
<path d="M82.5547 51.316V60.613C82.5547 60.9157 82.4352 61.2061 82.2222 61.4207C82.0093 61.6353 81.7202 61.7568 81.4182 61.7586H64.627C64.327 61.7568 64.0398 61.6366 63.8277 61.424C63.6156 61.2115 63.4956 60.9236 63.4939 60.623V51.409L73.0226 53.6967L82.5547 51.316Z" fill="#7EAABA"/>
<path d="M81.802 52.2856L73.0386 54.4538L64.2752 52.362V60.4305C64.2739 60.5054 64.2876 60.5799 64.3156 60.6493C64.3436 60.7188 64.3853 60.782 64.4382 60.835C64.4911 60.888 64.5541 60.9297 64.6234 60.9578C64.6927 60.9858 64.767 60.9996 64.8418 60.9983H81.2487C81.3251 61.0024 81.4015 60.9907 81.4732 60.9639C81.5449 60.937 81.6103 60.8957 81.6654 60.8424C81.7204 60.7891 81.7639 60.7251 81.7931 60.6542C81.8223 60.5833 81.8366 60.5072 81.8351 60.4305V52.2856H81.802Z" fill="#D3E8EF"/>
<path d="M73.0386 54.4539L64.2752 52.3621V60.4305C64.2739 60.5057 64.2877 60.5805 64.3159 60.6502C64.3441 60.7199 64.3861 60.7832 64.4393 60.8362C64.4926 60.8893 64.556 60.931 64.6257 60.9588C64.6954 60.9867 64.7701 61.0001 64.8451 60.9983H73.0519V54.4539H73.0386Z" fill="white"/>
<path d="M73.052 58.7702H80.394V59.7663H73.0553V58.7702H73.052ZM73.052 56.7282H80.394V57.7243H73.0553V56.7282H73.052Z" fill="#036AAB"/>
<path d="M73.0524 59.7665V58.7704H65.6838V59.7665H73.0524ZM65.6838 56.7383H73.0524V57.7344H65.6838V56.7383Z" fill="#0399ED"/>
<path d="M68.6721 56.094H69.5899V60.6064H68.6721V56.094Z" fill="white"/>
<path d="M66.0815 52.01C68.4008 52.5612 70.72 53.129 73.0392 53.6702L70.5709 56.031C68.9607 55.078 67.3671 54.0387 66.0948 52.01" fill="#7EAABA"/>
<path d="M68.0427 53.2684C68.7698 53.9653 69.5773 54.5728 70.4481 55.078L71.4918 54.0819C70.3586 53.8196 69.1924 53.5274 68.0427 53.2684Z" fill="white"/>
<path d="M79.9941 52.01C77.6748 52.5612 75.3556 53.1289 73.0364 53.6702L75.518 56.0177C77.1282 55.0647 78.7185 54.0254 79.9908 51.9967" fill="#7EAABA"/>
<path d="M78.0319 53.2684C77.3061 53.9669 76.4984 54.5745 75.6265 55.078L74.5862 54.0819C75.7359 53.8196 76.8855 53.5274 78.0319 53.2684Z" fill="white"/>
</g>
<defs>
<clipPath id="clip0_1627_3295">
<rect width="87.7995" height="23.9066" fill="white" transform="translate(55.6616 37.8521)"/>
</clipPath>
</defs>
</svg>
